<svg xmlns="http://www.w3.org/2000/svg" width="69.484" height="85.273" viewBox="0 0 69.484 85.273">
  <g id="Group_10585" data-name="Group 10585" transform="translate(0 0)">
    <g id="Group_10565" data-name="Group 10565" transform="translate(35.826 12.663)">
      <path id="Path_10173" data-name="Path 10173" d="M532,370.987l-14.238,60.191a8.547,8.547,0,0,0,.855,6.1,4.972,4.972,0,0,0,4.119,2.473c2,.159,3.742-1.095,4.98-2.388a10.144,10.144,0,0,0,2.448-4.644l14.475-58.782Z" transform="translate(-514.825 -369.174)" fill="#9fafcd" opacity="0.439"/>
      <g id="Group_10564" data-name="Group 10564" transform="translate(5.566 11.658)">
        <g id="Group_10561" data-name="Group 10561" transform="translate(8.827)">
          <path id="Path_10174" data-name="Path 10174" d="M530.109,387.518a1.706,1.706,0,0,0-.41-2.427l-.014-.007a1.666,1.666,0,0,0-1.533-.025,3.435,3.435,0,0,0-1.2,1.317,8.8,8.8,0,0,0-.826,1.541,2.589,2.589,0,0,0-.145,1.61,1,1,0,0,0,.732.749,2.035,2.035,0,0,0,1.488-.59A7.508,7.508,0,0,0,530.109,387.518Z" transform="translate(-525.913 -375.345)" fill="#37193a"/>
          <path id="Path_10175" data-name="Path 10175" d="M528.086,388.465a3.61,3.61,0,0,0,1.767-3.847c-.13-.584-.406-1.126-.566-1.7a2.124,2.124,0,0,1,.138-1.735c.444-.665,1.354-.817,1.968-1.329a2.064,2.064,0,0,0,.71-1.8c.248.077.306.4.278.663a2.674,2.674,0,0,1-1.26,1.977,4.112,4.112,0,0,0-1.147.731,1.693,1.693,0,0,0-.261,1.4c.091.483.294.935.42,1.409a4.521,4.521,0,0,1-1.039,4.158,1.559,1.559,0,0,1-.52.4C528.371,388.864,528.122,388.868,528.086,388.465Z" transform="translate(-525.055 -378.045)" fill="#37193a"/>
        </g>
        <g id="Group_10562" data-name="Group 10562" transform="translate(6.778 23.164)">
          <path id="Path_10176" data-name="Path 10176" d="M525.839,396.972a1.433,1.433,0,0,0,.557,2.017l.013.006a1.584,1.584,0,0,0,1.364.014,2.585,2.585,0,0,0,.957-1.1,6.444,6.444,0,0,0,.611-1.286,2,2,0,0,0,0-1.339.981.981,0,0,0-.71-.619,1.721,1.721,0,0,0-1.275.5A5.586,5.586,0,0,0,525.839,396.972Z" transform="translate(-523.971 -394.651)" fill="#37193a"/>
          <path id="Path_10177" data-name="Path 10177" d="M527.485,397.441a2.7,2.7,0,0,0-1.264,3.205c.16.485.449.936.637,1.414a1.646,1.646,0,0,1,.014,1.444c-.34.555-1.137.686-1.642,1.113a1.534,1.534,0,0,0-.487,1.505c-.227-.064-.3-.335-.3-.551a1.981,1.981,0,0,1,.962-1.649,3.227,3.227,0,0,0,.96-.612,1.288,1.288,0,0,0,.121-1.165c-.119-.4-.336-.776-.485-1.169a3.409,3.409,0,0,1,.594-3.462,1.178,1.178,0,0,1,.431-.333C527.2,397.111,527.421,397.107,527.485,397.441Z" transform="translate(-524.444 -393.667)" fill="#37193a"/>
        </g>
        <g id="Group_10563" data-name="Group 10563" transform="translate(0 40.133)">
          <path id="Path_10178" data-name="Path 10178" d="M520.747,410.023a1.433,1.433,0,0,0,1.275,1.66h.013a1.579,1.579,0,0,0,1.271-.5,2.591,2.591,0,0,0,.473-1.38,6.606,6.606,0,0,0,.082-1.421,2.015,2.015,0,0,0-.5-1.242.983.983,0,0,0-.89-.307,1.731,1.731,0,0,0-1,.94A5.623,5.623,0,0,0,520.747,410.023Z" transform="translate(-519.13 -406.816)" fill="#37193a"/>
          <path id="Path_10179" data-name="Path 10179" d="M521.942,410.054a2.7,2.7,0,0,1-.419,3.422c-.374.35-.841.607-1.236.939a1.649,1.649,0,0,0-.7,1.261c.035.65.674,1.145.912,1.763a1.534,1.534,0,0,1-.289,1.554c.229.053.425-.149.524-.34a1.976,1.976,0,0,0-.059-1.908,3.283,3.283,0,0,1-.552-1,1.294,1.294,0,0,1,.45-1.081c.3-.294.665-.522.985-.8a3.408,3.408,0,0,0,1.13-3.325,1.223,1.223,0,0,0-.219-.5A.3.3,0,0,0,521.942,410.054Z" transform="translate(-519.585 -405.601)" fill="#37193a"/>
        </g>
      </g>
      <path id="Path_10180" data-name="Path 10180" d="M531.154,370.716,515.863,431.4a8.357,8.357,0,0,0,1.126,6.76,8.721,8.721,0,0,0,5.613,3.561,8.043,8.043,0,0,0,6.549-1.631,8.292,8.292,0,0,0,3.068-4.631l15.6-60.854Z" transform="translate(-515.594 -369.281)" fill="#9fafcd" opacity="0.29"/>
      <path id="Path_10181" data-name="Path 10181" d="M526.824,369.713a119.521,119.521,0,0,1,17.231,4.09c.633.2,1.4.607,1.322,1.267a1,1,0,0,1-.842.776,2.934,2.934,0,0,1-1.209-.12l-16.782-4.1a1.642,1.642,0,0,1-1.077-.584C525.247,370.688,525.472,369.5,526.824,369.713Z" transform="translate(-511.725 -369.687)" fill="#9fafcd"/>
    </g>
    <g id="Group_10568" data-name="Group 10568" transform="translate(0 0)">
      <path id="Path_10182" data-name="Path 10182" d="M506.408,359.835l13.726,60.31a8.561,8.561,0,0,1-.907,6.1,4.976,4.976,0,0,1-4.14,2.438c-2.006.142-3.734-1.127-4.96-2.431a10.148,10.148,0,0,1-2.408-4.665l-13.975-58.9Z" transform="translate(-489.895 -358.043)" fill="#9fafcd" opacity="0.439"/>
      <g id="Group_10566" data-name="Group 10566" transform="translate(10.344 17.937)">
        <path id="Path_10183" data-name="Path 10183" d="M507.064,373.99a4.547,4.547,0,1,0-2.268,5.953A4.506,4.506,0,0,0,507.064,373.99Z" transform="translate(-498.4 -371.409)" fill="#e06074" opacity="0.49"/>
        <path id="Path_10184" data-name="Path 10184" d="M505.9,374.125a3.572,3.572,0,1,0-1.783,4.677A3.54,3.54,0,0,0,505.9,374.125Z" transform="translate(-498.125 -371.137)" fill="#e06074"/>
      </g>
      <g id="Group_10567" data-name="Group 10567" transform="translate(15.66 45.473)">
        <path id="Path_10185" data-name="Path 10185" d="M510.456,393.812a4.306,4.306,0,1,0-2.037,5.875A4.4,4.4,0,0,0,510.456,393.812Z" transform="translate(-502.211 -391.149)" fill="#e06074" opacity="0.49"/>
        <path id="Path_10186" data-name="Path 10186" d="M509.355,393.926a3.383,3.383,0,1,0-1.6,4.616A3.454,3.454,0,0,0,509.355,393.926Z" transform="translate(-501.948 -390.879)" fill="#e06074"/>
      </g>
      <path id="Path_10187" data-name="Path 10187" d="M508.709,359.574l14.775,60.815a8.355,8.355,0,0,1-1.183,6.75,8.721,8.721,0,0,1-5.642,3.514,8.048,8.048,0,0,1-6.537-1.686,8.3,8.3,0,0,1-3.028-4.658l-15.079-60.983Z" transform="translate(-490.577 -358.146)" fill="#9fafcd" opacity="0.29"/>
      <path id="Path_10188" data-name="Path 10188" d="M509.588,358.574a119.352,119.352,0,0,0-17.265,3.943c-.636.2-1.407.594-1.334,1.254a.994.994,0,0,0,.836.783,2.909,2.909,0,0,0,1.211-.109l16.817-3.953a1.651,1.651,0,0,0,1.082-.575C511.158,359.561,510.941,358.369,509.588,358.574Z" transform="translate(-490.984 -358.55)" fill="#9fafcd"/>
    </g>
  </g>
</svg>
