<svg xmlns="http://www.w3.org/2000/svg" xmlns:xlink="http://www.w3.org/1999/xlink" width="128.059" height="131.56" viewBox="0 0 128.059 131.56">
  <defs>
    <filter id="Path_9445" x="0" y="46.198" width="64.518" height="64.518" filterUnits="userSpaceOnUse">
      <feOffset dy="3" input="SourceAlpha"/>
      <feGaussianBlur stdDeviation="3" result="blur"/>
      <feFlood flood-opacity="0.161"/>
      <feComposite operator="in" in2="blur"/>
      <feComposite in="SourceGraphic"/>
    </filter>
    <filter id="Path_9292" x="36.76" y="36.319" width="91.3" height="87.622" filterUnits="userSpaceOnUse">
      <feOffset dy="3" input="SourceAlpha"/>
      <feGaussianBlur stdDeviation="3" result="blur-2"/>
      <feFlood flood-opacity="0.161"/>
      <feComposite operator="in" in2="blur-2"/>
      <feComposite in="SourceGraphic"/>
    </filter>
  </defs>
  <g id="Group_10685" data-name="Group 10685" transform="translate(-1258.016 -792.874)">
    <g id="stethoscope-svgrepo-com" transform="translate(1251 855.496) rotate(-45)">
      <path id="Path_9443" data-name="Path 9443" d="M8.319,3.566H0V0H9.561L9.285,1.3A6.491,6.491,0,0,1,8.319,3.566Z" transform="translate(31.322 24.002)" fill="#b7d6ca"/>
      <path id="Path_9444" data-name="Path 9444" d="M1.243,3.566A6.492,6.492,0,0,1,.276,1.3L0,0H9.505V3.566Z" transform="translate(21.817 24.002)" fill="#96b5a5"/>
      <g transform="matrix(0.71, 0.71, -0.71, 0.71, 49.24, -39.32)" filter="url(#Path_9445)">
        <path id="Path_9445-2" data-name="Path 9445" d="M4.879,6.408V20.975A10.07,10.07,0,0,0,15.066,30.9a10.07,10.07,0,0,0,10.187-9.925V16.4h-.094a11.824,11.824,0,0,1-7.506-2.706,11.536,11.536,0,0,1-3.967-6.447L12.35.964l.6-.121L16.531.121l.6-.121,1.059,4.983.276,1.3a6.491,6.491,0,0,0,.966,2.265,6.988,6.988,0,0,0,5.729,3.1h2.534V16.4h2.44v4.575A14.893,14.893,0,0,1,15.066,35.655,14.893,14.893,0,0,1,0,20.975V6.382a6.248,6.248,0,0,0,4.879.026Z" transform="translate(9 73.5) rotate(-45)" fill="#801b06"/>
      </g>
      <path id="Path_9446" data-name="Path 9446" d="M0,5.943A6.023,6.023,0,0,1,6.1,0V3.566A2.412,2.412,0,0,0,3.66,5.943,2.412,2.412,0,0,0,6.1,8.32v3.566a6.208,6.208,0,0,1-2.469-.509A5.94,5.94,0,0,1,0,5.943Z" transform="translate(0 14.025)" fill="#96b5a5"/>
      <path id="Path_9447" data-name="Path 9447" d="M0,8.32A2.412,2.412,0,0,0,2.44,5.943,2.412,2.412,0,0,0,0,3.566V0A6.023,6.023,0,0,1,6.1,5.943,5.943,5.943,0,0,1,2.41,11.4,6.214,6.214,0,0,1,0,11.886Z" transform="translate(6.099 14.025)" fill="#b7d6ca"/>
      <path id="Path_9448" data-name="Path 9448" d="M5.856,8.628a4.146,4.146,0,0,0-.764-3.6,4.394,4.394,0,0,0-3.465-1.46H0V0H1.627a8.018,8.018,0,0,1,6.3,2.774A7.575,7.575,0,0,1,9.44,9.351L7.332,19.268l-3.584-.723Z" transform="translate(38.791 0.594)" fill="#b7d6ca"/>
      <path id="Path_9449" data-name="Path 9449" d="M.194,9.351A7.576,7.576,0,0,1,1.7,2.774,8.018,8.018,0,0,1,8.007,0H9.634V3.566H8.007a4.393,4.393,0,0,0-3.465,1.46,4.147,4.147,0,0,0-.764,3.6l2.108,9.918L2.3,19.269Z" transform="translate(14.275 0.594)" fill="#96b5a5"/>
      <path id="Path_9450" data-name="Path 9450" d="M0,11.646H2.59a6.989,6.989,0,0,0,5.729-3.1,6.491,6.491,0,0,0,.966-2.265l.276-1.3L10.62,0l.6.121L14.8.844l.6.121L14.063,7.248A11.537,11.537,0,0,1,10.1,13.695,11.825,11.825,0,0,1,2.59,16.4H0V11.646Z" transform="translate(31.322 19.019)" fill="#d5310e"/>
      <path id="Path_9451" data-name="Path 9451" d="M4.879,2.377A2.412,2.412,0,0,1,2.44,4.754,2.412,2.412,0,0,1,0,2.377,2.412,2.412,0,0,1,2.44,0,2.412,2.412,0,0,1,4.879,2.377Z" transform="translate(3.66 17.591)" fill="#fff"/>
      <rect id="Rectangle_3609" data-name="Rectangle 3609" width="4.879" height="4.754" transform="translate(33.912 0)" fill="#d5310e"/>
      <rect id="Rectangle_3610" data-name="Rectangle 3610" width="4.879" height="4.754" transform="translate(23.909 0)" fill="#801b06"/>
    </g>
    <g id="hotel-svgrepo-com" transform="translate(1303.775 792.874)">
      <g transform="matrix(1, 0, 0, 1, -45.76, 0)" filter="url(#Path_9292)">
        <path id="Path_9292-2" data-name="Path 9292" d="M88.371,214.038v27.3L126.2,263.183l35.468-20.477V215.4l-37.832-21.842Z" transform="translate(-42.61 -151.24)" fill="#e0e0e2"/>
      </g>
      <path id="Path_9293" data-name="Path 9293" d="M110,99.9v40.954l33.1,19.112V119.015Z" transform="translate(-105.272 -78.061)" fill="#c6c5cb"/>
      <path id="Path_9294" data-name="Path 9294" d="M289.781,112.39v40.954l-28.374,16.382V128.772Z" transform="translate(-223.575 -87.817)" fill="#acabb1"/>
      <path id="Path_9295" data-name="Path 9295" d="M99.186,17.747,129.924,0l35.467,20.477L134.653,38.224Z" transform="translate(-96.821)" fill="#b77fda"/>
      <path id="Path_9296" data-name="Path 9296" d="M99.186,81.171V83.9l35.467,20.477v-2.73Z" transform="translate(-96.821 -63.424)" fill="#a258cb"/>
      <path id="Path_9297" data-name="Path 9297" d="M261.407,114.135l30.738-17.747v-2.73L261.407,111.4Z" transform="translate(-223.575 -73.181)" fill="#1b0968"/>
      <path id="Path_9298" data-name="Path 9298" d="M120.815,27.5l26.01-15.017,30.739,17.747-26.01,15.017Z" transform="translate(-113.722 -9.758)" fill="#1b0968"/>
      <path id="Path_9299" data-name="Path 9299" d="M258.1,101.507V99.756h0a1.939,1.939,0,0,0-1.141-1.6,6.14,6.14,0,0,0-5.536,0,1.943,1.943,0,0,0-1.143,1.6h0v1.751h0a1.936,1.936,0,0,0,1.14,1.6,6.147,6.147,0,0,0,5.536,0,1.941,1.941,0,0,0,1.144-1.6Z" transform="translate(-214.881 -76.182)" fill="#c6c5cb"/>
      <path id="Path_9300" data-name="Path 9300" d="M251.423,98.159c-1.522.879-1.524,2.316,0,3.194a6.147,6.147,0,0,0,5.536,0c1.524-.878,1.526-2.315,0-3.194A6.14,6.14,0,0,0,251.423,98.159Z" transform="translate(-214.881 -76.182)" fill="#e0e0e2"/>
      <path id="Path_9301" data-name="Path 9301" d="M296.01,79.62V77.869h0a1.939,1.939,0,0,0-1.141-1.6,6.14,6.14,0,0,0-5.536,0,1.943,1.943,0,0,0-1.143,1.6h0V79.62h0a1.936,1.936,0,0,0,1.14,1.6,6.147,6.147,0,0,0,5.536,0,1.942,1.942,0,0,0,1.144-1.6Z" transform="translate(-244.502 -59.08)" fill="#c6c5cb"/>
      <path id="Path_9302" data-name="Path 9302" d="M289.333,76.272c-1.522.879-1.524,2.316,0,3.194a6.147,6.147,0,0,0,5.536,0c1.524-.878,1.526-2.316,0-3.194A6.14,6.14,0,0,0,289.333,76.272Z" transform="translate(-244.503 -59.081)" fill="#e0e0e2"/>
      <path id="Path_9303" data-name="Path 9303" d="M123.18,28.87l23.645-13.652v-2.73L120.815,27.5Z" transform="translate(-113.722 -9.758)" fill="#7f33ad"/>
      <path id="Path_9304" data-name="Path 9304" d="M239.778,15.218,268.152,31.6l2.365-1.365L239.778,12.488Z" transform="translate(-206.675 -9.758)" fill="#a258cb"/>
      <g id="Group_10400" data-name="Group 10400" transform="translate(9.458 30.033)">
        <path id="Path_9305" data-name="Path 9305" d="M131.63,148.286V137.365l4.729,2.731v10.921Z" transform="translate(-131.63 -137.365)" fill="#59a4ff"/>
        <path id="Path_9306" data-name="Path 9306" d="M174.89,173.263V162.342l4.729,2.73v10.921Z" transform="translate(-165.432 -156.881)" fill="#59a4ff"/>
        <path id="Path_9307" data-name="Path 9307" d="M218.149,198.238V187.317l4.729,2.73v10.921Z" transform="translate(-199.233 -176.396)" fill="#59a4ff"/>
        <path id="Path_9308" data-name="Path 9308" d="M131.63,235.54V224.619l4.729,2.73V238.27Z" transform="translate(-131.63 -205.542)" fill="#59a4ff"/>
        <path id="Path_9309" data-name="Path 9309" d="M174.89,260.516V249.6l4.729,2.73v10.921Z" transform="translate(-165.432 -225.057)" fill="#59a4ff"/>
        <path id="Path_9310" data-name="Path 9310" d="M218.149,285.6V274.683l4.729,2.73v10.921Z" transform="translate(-199.233 -244.66)" fill="#59a4ff"/>
      </g>
      <g id="Group_10401" data-name="Group 10401" transform="translate(42.561 32.764)">
        <path id="Path_9311" data-name="Path 9311" d="M287.766,198.238V187.317l-4.729,2.73v10.921Z" transform="translate(-283.037 -179.126)" fill="#2487ff"/>
        <path id="Path_9312" data-name="Path 9312" d="M320.21,179.506V168.585l-4.729,2.73v10.921Z" transform="translate(-308.388 -164.49)" fill="#2487ff"/>
        <path id="Path_9313" data-name="Path 9313" d="M287.766,285.653V274.732l-4.729,2.73v10.921Z" transform="translate(-283.037 -247.429)" fill="#2487ff"/>
        <path id="Path_9314" data-name="Path 9314" d="M320.21,266.921V256l-4.729,2.73v10.921Z" transform="translate(-308.388 -232.793)" fill="#2487ff"/>
        <path id="Path_9315" data-name="Path 9315" d="M352.654,160.775V149.854l-4.729,2.73v10.921Z" transform="translate(-333.738 -149.854)" fill="#2487ff"/>
        <path id="Path_9316" data-name="Path 9316" d="M352.654,248.189V237.268L347.925,240v10.921Z" transform="translate(-333.738 -218.156)" fill="#2487ff"/>
      </g>
      <path id="Path_9317" data-name="Path 9317" d="M261.407,341.244l35.468-20.477v-27.3l-35.468,20.477Z" transform="translate(-223.575 -229.302)" fill="#acabb1"/>
      <g id="Group_10402" data-name="Group 10402" transform="translate(42.561 75.083)">
        <path id="Path_9318" data-name="Path 9318" d="M287.766,410.531V399.61l-4.729,2.73v10.921Z" transform="translate(-283.037 -387.324)" fill="#2487ff"/>
        <path id="Path_9319" data-name="Path 9319" d="M320.21,391.8V380.878l-4.729,2.73v10.921Z" transform="translate(-308.388 -372.687)" fill="#2487ff"/>
        <path id="Path_9320" data-name="Path 9320" d="M352.654,373.067V362.146l-4.729,2.731V375.8Z" transform="translate(-333.738 -358.051)" fill="#2487ff"/>
        <path id="Path_9321" data-name="Path 9321" d="M385.1,354.336V343.415l-4.729,2.73v10.921Z" transform="translate(-359.089 -343.415)" fill="#2487ff"/>
      </g>
      <path id="Path_9322" data-name="Path 9322" d="M164.074,26.727l16.552-9.556,9.458,5.46v3.413L173.532,35.6l-9.458-5.461Z" transform="translate(-147.523 -13.417)" fill="#e0e0e2"/>
      <path id="Path_9323" data-name="Path 9323" d="M104.593,441.942l16.552-9.556,9.458,5.46-16.552,10.177Z" transform="translate(-101.046 -337.851)" fill="#1b0968"/>
      <path id="Path_9324" data-name="Path 9324" d="M164.074,60.878v3.413l9.458,5.461V66.339Z" transform="translate(-147.523 -47.568)" fill="#d8d8da"/>
      <g id="Group_10403" data-name="Group 10403" transform="translate(0 9.215)">
        <path id="Path_9325" data-name="Path 9325" d="M207.334,55.115l16.551-9.556V42.146L207.334,51.7Z" transform="translate(-181.324 -42.146)" fill="#c6c5cb"/>
        <path id="Path_9326" data-name="Path 9326" d="M88.371,287.219v27.3L126.2,336.364v-27.3Z" transform="translate(-88.371 -233.637)" fill="#c6c5cb"/>
      </g>
      <g id="Group_10404" data-name="Group 10404" transform="translate(4.724 76.45)">
        <path id="Path_9327" data-name="Path 9327" d="M109.979,349.668l4.729,2.725v10.921l-4.729-2.73Z" transform="translate(-109.979 -349.668)" fill="#59a4ff"/>
        <path id="Path_9328" data-name="Path 9328" d="M153.246,390.963V374.581l9.458,5.461v16.392Z" transform="translate(-143.786 -369.134)" fill="#59a4ff"/>
      </g>
      <path id="Path_9329" data-name="Path 9329" d="M173.779,402.824l.479.277V386.714l-.479-.277Z" transform="translate(-155.106 -301.948)" fill="#1d81cd"/>
      <g id="Group_10405" data-name="Group 10405" transform="translate(17.27 90.48)">
        <path id="Path_9330" data-name="Path 9330" d="M177.02,422.781a.239.239,0,0,1-.24-.239v-2.731a.24.24,0,0,1,.12-.207l.568-.328a.24.24,0,1,1,.24.415l-.448.259v2.177l.209-.121a.24.24,0,1,1,.24.415l-.568.328A.239.239,0,0,1,177.02,422.781Z" transform="translate(-174.721 -418.061)" fill="#fff"/>
        <path id="Path_9331" data-name="Path 9331" d="M167.6,417.374a.239.239,0,0,1-.24-.239V414.4a.24.24,0,0,1,.12-.207l.568-.328a.24.24,0,1,1,.24.415l-.448.259v2.177l.209-.121a.24.24,0,1,1,.24.415l-.568.328A.238.238,0,0,1,167.6,417.374Z" transform="translate(-167.362 -413.836)" fill="#fff"/>
      </g>
      <path id="Path_9332" data-name="Path 9332" d="M218.149,399.632l4.729,2.725v10.921l-4.729-2.73Z" transform="translate(-189.775 -312.258)" fill="#59a4ff"/>
      <g id="Group_10406" data-name="Group 10406" transform="translate(38.907 44.47)">
        <path id="Path_9333" data-name="Path 9333" d="M269.181,277.13l-2.6-1.5a.239.239,0,0,1-.088-.327h0a.239.239,0,0,1,.327-.088l2.6,1.5a.239.239,0,0,1,.088.327h0A.24.24,0,0,1,269.181,277.13Z" transform="translate(-266.429 -259.486)" fill="#51216d"/>
        <path id="Path_9334" data-name="Path 9334" d="M267.77,204.533l-1.191-.688a.239.239,0,0,1-.088-.327h0a.239.239,0,0,1,.327-.088l1.191.688a.239.239,0,0,1,.088.327h0A.24.24,0,0,1,267.77,204.533Z" transform="translate(-266.429 -203.399)" fill="#51216d"/>
        <path id="Path_9335" data-name="Path 9335" d="M267.636,238.718l-1.191-.688a.239.239,0,0,1-.088-.327h0a.239.239,0,0,1,.327-.088l1.191.688a.239.239,0,0,1,.088.327h0A.24.24,0,0,1,267.636,238.718Z" transform="translate(-266.325 -230.11)" fill="#51216d"/>
        <path id="Path_9336" data-name="Path 9336" d="M267.77,309.15l-1.191-.688a.239.239,0,0,1-.088-.327h0a.239.239,0,0,1,.327-.088l1.191.688a.239.239,0,0,1,.088.327h0A.24.24,0,0,1,267.77,309.15Z" transform="translate(-266.429 -285.143)" fill="#51216d"/>
        <path id="Path_9337" data-name="Path 9337" d="M267.77,343.626l-1.191-.688a.239.239,0,0,1-.088-.327h0a.239.239,0,0,1,.327-.088l1.191.688a.239.239,0,0,1,.088.327h0A.239.239,0,0,1,267.77,343.626Z" transform="translate(-266.429 -312.081)" fill="#51216d"/>
      </g>
      <path id="Path_9338" data-name="Path 9338" d="M273,196.734l1.412.815v1.63l1.411.815v-1.63l1.412.815v4.89l-1.412-.815v-1.63l-1.411-.815v1.63L273,201.624Z" transform="translate(-232.636 -153.721)" fill="#a258cb"/>
      <g id="Group_10407" data-name="Group 10407" transform="translate(40.367 42.198)">
        <path id="Path_9339" data-name="Path 9339" d="M273,193.821l1.412-.815,1.411.815-1.411.815Z" transform="translate(-273.003 -193.006)" fill="#b77fda"/>
        <path id="Path_9340" data-name="Path 9340" d="M285.914,201.277l1.412-.815,1.412.815-1.412.815Z" transform="translate(-283.091 -198.832)" fill="#b77fda"/>
      </g>
      <path id="Path_9341" data-name="Path 9341" d="M280.87,196.734v1.63l-1.411.815v-1.63Z" transform="translate(-237.68 -153.721)" fill="#1b0968"/>
      <path id="Path_9342" data-name="Path 9342" d="M280.87,205.82,279.459,205l1.411-.815Z" transform="translate(-237.68 -159.547)" fill="#b77fda"/>
      <g id="Group_10408" data-name="Group 10408" transform="translate(41.779 44.643)">
        <path id="Path_9343" data-name="Path 9343" d="M293.783,204.19v4.89l-1.411.815V205Z" transform="translate(-289.548 -204.19)" fill="#1b0968"/>
        <path id="Path_9344" data-name="Path 9344" d="M279.459,217l1.411-.815-1.411-.815Z" transform="translate(-279.459 -212.927)" fill="#1b0968"/>
      </g>
      <path id="Path_9345" data-name="Path 9345" d="M273,231.6v4.89l4.235,2.445v-4.89Z" transform="translate(-232.636 -180.964)" fill="#a258cb"/>
      <path id="Path_9346" data-name="Path 9346" d="M279.459,242.782v1.63l1.411.815V243.6Z" transform="translate(-237.68 -189.701)" fill="#b77fda"/>
      <path id="Path_9347" data-name="Path 9347" d="M279.459,244.412l1.411-.815-1.411-.815Z" transform="translate(-237.68 -189.701)" fill="#7f33ad"/>
      <path id="Path_9348" data-name="Path 9348" d="M273,228.687l1.412-.815,4.234,2.445-1.411.815Z" transform="translate(-232.636 -178.051)" fill="#b77fda"/>
      <path id="Path_9349" data-name="Path 9349" d="M292.371,244.76l1.411-.815v-4.89l-1.411.815Z" transform="translate(-247.769 -186.789)" fill="#1b0968"/>
      <path id="Path_9350" data-name="Path 9350" d="M273,268.329v1.63l1.412.815v3.26l1.411.815v-3.26l1.412.815v-1.63Z" transform="translate(-232.636 -209.663)" fill="#a258cb"/>
      <path id="Path_9351" data-name="Path 9351" d="M273,265.416l1.412-.815,4.234,2.445-1.411.815Z" transform="translate(-232.636 -206.75)" fill="#b77fda"/>
      <g id="Group_10409" data-name="Group 10409" transform="translate(43.19 60.296)">
        <path id="Path_9352" data-name="Path 9352" d="M293.783,275.783v1.63l-1.411.815V276.6Z" transform="translate(-290.959 -275.783)" fill="#1b0968"/>
        <path id="Path_9353" data-name="Path 9353" d="M285.914,286.5s1.318-.722,1.412-.815a9.511,9.511,0,0,0,0-1.63l-1.412-.815Z" transform="translate(-285.914 -281.61)" fill="#1b0968"/>
      </g>
      <path id="Path_9354" data-name="Path 9354" d="M273,301.33v4.89l4.235,2.445v-1.63l-2.823-1.63,1.411.815v-1.63l-1.411-.815,2.823,1.63v-1.63Z" transform="translate(-232.636 -235.448)" fill="#a258cb"/>
      <path id="Path_9355" data-name="Path 9355" d="M273,298.418l1.412-.815,4.234,2.445-1.411.815Z" transform="translate(-232.636 -232.536)" fill="#b77fda"/>
      <g id="Group_10410" data-name="Group 10410" transform="translate(43.19 67.512)">
        <path id="Path_9356" data-name="Path 9356" d="M292.371,311.23l1.411-.815v-1.63l-1.411.815Z" transform="translate(-290.959 -308.785)" fill="#1b0968"/>
        <path id="Path_9357" data-name="Path 9357" d="M285.914,317.87l1.412-.815-1.412-.815Z" transform="translate(-285.914 -314.61)" fill="#1b0968"/>
      </g>
      <path id="Path_9358" data-name="Path 9358" d="M287.326,319.968l1.412.815-1.412.815-1.412-.815v-.134Z" transform="translate(-242.724 -250.011)" fill="#b77fda"/>
      <path id="Path_9359" data-name="Path 9359" d="M292.371,326.14l1.411-.815V323.7l-1.411.815Z" transform="translate(-247.769 -252.924)" fill="#1b0968"/>
      <path id="Path_9360" data-name="Path 9360" d="M273,341.085V336.2l1.412.815v3.26l2.823,1.63v1.63Z" transform="translate(-232.636 -262.691)" fill="#a258cb"/>
      <path id="Path_9361" data-name="Path 9361" d="M274.415,332.468l-1.412.815,1.412.815,1.411-.815Z" transform="translate(-232.636 -259.778)" fill="#b77fda"/>
      <path id="Path_9362" data-name="Path 9362" d="M280.87,336.2v3.26l-1.411.815v-3.26Z" transform="translate(-237.68 -262.691)" fill="#1b0968"/>
      <path id="Path_9363" data-name="Path 9363" d="M282.282,353.551l1.412-.815-2.823-1.63-1.411.815Z" transform="translate(-237.68 -274.341)" fill="#b77fda"/>
      <g id="Group_10411" data-name="Group 10411" transform="translate(41.779 68.326)">
        <path id="Path_9364" data-name="Path 9364" d="M292.371,361.005l1.411-.815v-1.63l-1.411.815Z" transform="translate(-289.548 -348.492)" fill="#1b0968"/>
        <path id="Path_9365" data-name="Path 9365" d="M280.87,313.461l-1.411-.815v-.134l1.411.815Z" transform="translate(-279.459 -312.512)" fill="#1b0968"/>
      </g>
      <path id="Path_9366" data-name="Path 9366" d="M280.87,320.3l-1.411-.815v-.134l1.411.815Z" transform="translate(-237.68 -249.532)" fill="#b77fda"/>
      <g id="Group_10412" data-name="Group 10412" transform="translate(4.729 81.866)">
        <path id="Path_9367" data-name="Path 9367" d="M111.053,393.466V374.44H110v19.026a.261.261,0,0,0,.153.215.828.828,0,0,0,.745,0A.26.26,0,0,0,111.053,393.466Z" transform="translate(-110 -374.44)" fill="#e0e0e2"/>
        <path id="Path_9368" data-name="Path 9368" d="M184.156,434.526V415.5H183.1v19.026a.261.261,0,0,0,.153.215.828.828,0,0,0,.745,0A.261.261,0,0,0,184.156,434.526Z" transform="translate(-167.12 -406.524)" fill="#e0e0e2"/>
      </g>
      <path id="Path_9369" data-name="Path 9369" d="M133.646,348.452c0-.021,0-.043,0-.064s0-.046,0-.067c-.2-4.655-3.834-10.4-8.248-12.945-2.4-1.386-4.568-1.558-6.08-.718h0l-7.163,4.094,0,0A4.73,4.73,0,0,0,110,342.964c0,.012,0,.022,0,.034h0a2.615,2.615,0,0,0,1.179,2.041c.648.374,1.178.068,1.179-.679h0a2.616,2.616,0,0,0,1.179,2.041c.648.374,1.178.068,1.179-.679h0a2.616,2.616,0,0,0,1.179,2.041c.648.374,1.178.068,1.179-.679h0a2.615,2.615,0,0,0,1.179,2.04c.648.374,1.178.068,1.179-.679h0a2.615,2.615,0,0,0,1.179,2.041c.648.374,1.178.068,1.179-.679h0a2.616,2.616,0,0,0,1.179,2.041c.648.374,1.178.068,1.179-.679h0a2.616,2.616,0,0,0,1.179,2.041c.648.374,1.178.068,1.179-.679h0l0,0c0,.018,0,.036,0,.054,0,.755.535,1.064,1.189.687a2.638,2.638,0,0,0,1.189-2.06c0,.755.535,1.064,1.189.687a2.638,2.638,0,0,0,1.189-2.06c0,.755.535,1.064,1.189.686a2.638,2.638,0,0,0,1.189-2.06s0-.007,0-.01Zm-4.757,2.757c0-.013,0-.024,0-.037l.005,0C128.892,351.183,128.889,351.2,128.889,351.209Zm2.379-1.373c0-.008,0-.016,0-.024l0,0C131.269,349.819,131.267,349.828,131.267,349.836Z" transform="translate(-105.272 -261.092)" fill="#b77fda"/>
      <path id="Path_9370" data-name="Path 9370" d="M126.509,367.108h0s0,0,0,0c-.143-4.677-3.8-10.5-8.254-13.072-4.4-2.542-8.025-1-8.246,3.389a1.432,1.432,0,0,0-.009.154h0a2.615,2.615,0,0,0,1.179,2.041c.648.374,1.178.068,1.179-.679h0a2.616,2.616,0,0,0,1.179,2.041c.648.374,1.178.068,1.179-.679h0a2.615,2.615,0,0,0,1.179,2.04c.648.374,1.178.068,1.179-.679h0a2.615,2.615,0,0,0,1.179,2.041c.648.374,1.178.068,1.179-.679h0a2.615,2.615,0,0,0,1.179,2.04c.648.374,1.178.068,1.179-.679h0a2.615,2.615,0,0,0,1.179,2.041c.648.374,1.178.068,1.179-.679h0a2.615,2.615,0,0,0,1.179,2.04c.648.374,1.178.068,1.179-.679h0Z" transform="translate(-105.271 -275.668)" fill="#1b0968"/>
    </g>
    <g id="car-white-svgrepo-com" transform="translate(1270.016 885.197)">
      <g id="Group_10413" data-name="Group 10413" transform="translate(0 13.651)">
        <path id="Path_9371" data-name="Path 9371" d="M68.5,293.764c2.43-.734,6.855-2.739,8.445-4.223,1.834-1.553-1.207-3.424-1.658-3.686s-29.4-14.693-33.272-16.395-13.766,4.3-16.732,5.942c-2.418,1.342-.709,2.291-.387,2.553S47.355,289.673,54,292.815A19.26,19.26,0,0,0,68.5,293.764Z" transform="translate(-24.011 -269.16)" fill="rgba(0,0,0,0.2)"/>
      </g>
      <path id="Path_9372" data-name="Path 9372" d="M430.421,422.907l2.965-1.375v0l.057-.027c1.766-.793,4.286,1,5.627,4.011s1,6.088-.768,6.881l-.076.032-2.856,1.326-1.586-3.477a9.976,9.976,0,0,1-1.744-3.823Z" transform="translate(-406.993 -398.897)" fill-rule="evenodd"/>
      <ellipse id="Ellipse_358" data-name="Ellipse 358" cx="3.503" cy="5.962" rx="3.503" ry="5.962" transform="translate(20.314 25.405) rotate(-24.083)"/>
      <g id="Group_10414" data-name="Group 10414" transform="translate(21.62 24.268)">
        <ellipse id="Ellipse_359" data-name="Ellipse 359" cx="2.627" cy="4.472" rx="2.627" ry="4.472" transform="translate(0 2.144) rotate(-24.083)" fill="#fff"/>
      </g>
      <g id="Group_10415" data-name="Group 10415" transform="translate(23.337 25.917)">
        <path id="Path_9373" data-name="Path 9373" d="M431.439,482.256a4.131,4.131,0,0,1,1.111.986l-.767,1.332a1.623,1.623,0,0,0-.344-.309Zm0,4.516a.619.619,0,0,0,.5.017l.007,0,1.119,1.944a1.318,1.318,0,0,1-.2.112,1.659,1.659,0,0,1-1.426-.1Zm-.135,1.894V486.7a1.593,1.593,0,0,1-.392-.345l-.752,1.306A4.085,4.085,0,0,0,431.3,488.666Zm0-4.476v-2.007a1.678,1.678,0,0,0-1.465-.124,1.33,1.33,0,0,0-.334.215l1.131,1.965a.515.515,0,0,1,.129-.083A.637.637,0,0,1,431.3,484.19Zm-1.945,2.155a6.037,6.037,0,0,0,.711,1.205l.752-1.307a2.36,2.36,0,0,1-.243-.424q-.016-.037-.031-.073l-1.294.348Q429.3,486.219,429.359,486.344Zm2.514-1.656.766-1.331a6.04,6.04,0,0,1,.706,1.2q.06.134.112.268l-1.31.352-.022-.051A2.356,2.356,0,0,0,431.874,484.688Zm-2.669,1.278a5.411,5.411,0,0,1-.355-1.83l1.533.888a2.111,2.111,0,0,0,.117.594Zm2.992-.664a2.077,2.077,0,0,1,.127.689l1.53.886a5.324,5.324,0,0,0-.348-1.927Zm1.65,1.728-1.531-.887a.838.838,0,0,1-.256.569l1.114,1.935A2.244,2.244,0,0,0,433.848,487.031Zm-5-3.049,1.532.887a1.007,1.007,0,0,1,.158-.523l-1.137-1.975A2.454,2.454,0,0,0,428.852,483.981Z" transform="translate(-428.85 -481.942)" fill="#4c4c4c" fill-rule="evenodd"/>
      </g>
      <path id="Path_9374" data-name="Path 9374" d="M430.428,421.832l2.965-1.375v0l.056-.026c1.766-.793,4.286,1,5.627,4.011s1,6.088-.768,6.881l-.08.034-2.851,1.324-1.584-3.472a9.975,9.975,0,0,1-1.749-3.833Z" transform="translate(-407 -397.885)" fill-rule="evenodd"/>
      <path id="Path_9375" data-name="Path 9375" d="M404.329,449.7c1.341,3.005,3.86,4.8,5.626,4.006s2.111-3.871.77-6.876-3.935-4.961-5.7-4.168S402.988,446.7,404.329,449.7Z" transform="translate(-381.609 -418.844)" fill="#242424"/>
      <g id="Group_10416" data-name="Group 10416" transform="translate(22.192 24.496)">
        <ellipse id="Ellipse_360" data-name="Ellipse 360" cx="2.444" cy="4.343" rx="2.444" ry="4.343" transform="matrix(0.948, -0.319, 0.319, 0.948, 0, 1.56)" fill="#fff"/>
      </g>
      <g id="Group_10417" data-name="Group 10417" transform="translate(23.88 26.333)">
        <path id="Path_9376" data-name="Path 9376" d="M438.59,493.029c.544,1.485,1.612,2.455,2.5,2.291l-.53-1.552c-.389,0-.825-.412-1.08-1.022Zm-.126-.386c-.42-1.465-.173-2.856.577-3.322l.53,1.553a1.578,1.578,0,0,0-.22,1.487Zm2.587-.822c-.249-.645-.7-1.082-1.1-1.091l-.53-1.553c.9-.159,1.982.843,2.516,2.363Zm.118.389.887-.282c.39,1.433.142,2.783-.59,3.245l-.53-1.553A1.542,1.542,0,0,0,441.17,492.209Z" transform="translate(-438.261 -489.159)" fill="#a9a8a8" fill-rule="evenodd"/>
      </g>
      <path id="Path_9377" data-name="Path 9377" d="M70.5,278.136l2.221-1.03h0l.042-.02c1.323-.594,3.211.751,4.216,3s.748,4.561-.575,5.155l-.048.021-2.147,1-1.187-2.6a7.471,7.471,0,0,1-1.31-2.872Z" transform="translate(-67.819 -262.847)" fill-rule="evenodd"/>
      <ellipse id="Ellipse_361" data-name="Ellipse 361" cx="2.624" cy="4.466" rx="2.624" ry="4.466" transform="matrix(0.946, -0.323, 0.323, 0.946, 0.638, 15.962)"/>
      <g id="Group_10418" data-name="Group 10418" transform="translate(1.325 15.482)">
        <ellipse id="Ellipse_362" data-name="Ellipse 362" cx="1.968" cy="3.35" rx="1.968" ry="3.35" transform="translate(0 1.606) rotate(-24.083)" fill="#fff"/>
      </g>
      <g id="Group_10419" data-name="Group 10419" transform="translate(2.61 16.718)">
        <path id="Path_9378" data-name="Path 9378" d="M71.257,322.618a3.131,3.131,0,0,1,.8.718l-.574,1a1.253,1.253,0,0,0-.223-.207Zm0,3.376a.461.461,0,0,0,.314.01l.842,1.462a.976.976,0,0,1-.121.065,1.227,1.227,0,0,1-1.034-.062Zm-.135,1.406v-1.471a1.171,1.171,0,0,1-.271-.232l-.564.979A3.035,3.035,0,0,0,71.122,327.4Zm0-3.354v-1.5a1.257,1.257,0,0,0-1.1-.093.994.994,0,0,0-.251.162l.848,1.472a.387.387,0,0,1,.1-.063A.477.477,0,0,1,71.122,324.046Zm-1.457,1.615a4.519,4.519,0,0,0,.532.9l.564-.979a1.77,1.77,0,0,1-.181-.316l-.01-.024-.971.261Q69.63,325.582,69.665,325.66Zm1.9-1.212.574-1a4.538,4.538,0,0,1,.507.869q.045.1.084.2l-.981.264-.016-.038A1.777,1.777,0,0,0,71.57,324.449Zm-2.021.928a4.079,4.079,0,0,1-.265-1.331l1.151.666a1.608,1.608,0,0,0,.085.4Zm2.253-.465a1.539,1.539,0,0,1,.084.485l1.146.663a3.971,3.971,0,0,0-.249-1.412Zm1.222,1.3-1.149-.665a.605.605,0,0,1-.188.39l.834,1.45A1.658,1.658,0,0,0,73.025,326.212Zm-3.74-2.322,1.148.665a.792.792,0,0,1,.1-.359l-.855-1.485A1.871,1.871,0,0,0,69.285,323.89Z" transform="translate(-69.284 -322.362)" fill="#4c4c4c" fill-rule="evenodd"/>
      </g>
      <path id="Path_9379" data-name="Path 9379" d="M70.485,277.313l2.221-1.03h0l.042-.02c1.323-.594,3.21.751,4.216,3s.748,4.561-.575,5.155l-.041.018-2.155,1-1.187-2.6a7.472,7.472,0,0,1-1.31-2.871Z" transform="translate(-67.806 -262.071)" fill-rule="evenodd"/>
      <path id="Path_9380" data-name="Path 9380" d="M53.437,294.077c.6,2.392,2.34,4.014,3.894,3.623s2.332-2.647,1.736-5.039-2.375-4.144-3.929-3.753S52.841,291.685,53.437,294.077Z" transform="translate(-51.548 -274.068)" fill="#242424"/>
      <g id="Group_10420" data-name="Group 10420" transform="translate(1.783 15.855)">
        <ellipse id="Ellipse_363" data-name="Ellipse 363" cx="1.834" cy="3.248" rx="1.834" ry="3.248" transform="matrix(0.97, -0.243, 0.243, 0.97, 0, 0.892)" fill="#fff"/>
      </g>
      <g id="Group_10421" data-name="Group 10421" transform="translate(2.905 17.134)">
        <path id="Path_9381" data-name="Path 9381" d="M74.584,332.5c.316,1.029.976,1.748,1.6,1.763l-.313-1.219a1.162,1.162,0,0,1-.6-.7Zm-.1-.394a2.407,2.407,0,0,1,.533-2.392l.312,1.218a1.323,1.323,0,0,0-.168,1.016Zm1.978-.463c-.148-.5-.459-.849-.759-.879l-.305-1.191c.682-.068,1.433.744,1.743,1.911Zm.077.4.687-.161a2.194,2.194,0,0,1-.649,2.289l-.306-1.192A1.094,1.094,0,0,0,76.539,332.047Z" transform="translate(-74.402 -329.574)" fill="#a9a8a8" fill-rule="evenodd"/>
      </g>
      <g id="Group_10422" data-name="Group 10422" transform="translate(0.658 0)">
        <path id="Path_9382" data-name="Path 9382" d="M35.442,50.42a1.388,1.388,0,0,0,.328.782.316.316,0,0,0,.543-.183c.035-.214.083-.533.149-1.023.254-1.881,1.585-2.605,2.394-2.428a3.313,3.313,0,0,1,2.236,2.23,12.9,12.9,0,0,1,.935,3.927.228.228,0,0,0,.092.166c1.2.819,14.853,7.755,14.808,7.591a8.312,8.312,0,0,1,.316-3.569A2.419,2.419,0,0,1,60.2,56.2a5.589,5.589,0,0,1,3.5,2.957c1.478,3.007,1.111,5.05,1.478,6.124.121.353,6,2.579,8.09,3.1,5.228,1.558,12.611-3.75,14-4.778s1.506-4.051,1.3-7.407c0-1.961-.417-2.978-.717-3.291a35.938,35.938,0,0,0-7.022-5.1.368.368,0,0,1-.1-.075c-5.325-5.808-5.665-6.532-7.5-7.423C69.511,38.508,54.34,32.348,51,32.348c-1.971,0-8.91,2.241-10.785,3.67A15.652,15.652,0,0,0,36.555,41.3a.337.337,0,0,0-.029.1c-.149,1.139-.436,4.5-.738,4.83C35.405,46.646,35.391,49.759,35.442,50.42Z" transform="translate(-35.421 -32.348)" fill="#474747"/>
      </g>
      <g id="Group_10436" data-name="Group 10436" transform="translate(2.116 4.05)">
        <g id="Group_10423" data-name="Group 10423" transform="translate(33.276 16.219)">
          <path id="Path_9383" data-name="Path 9383" d="M644.834,391.359a10.708,10.708,0,0,1-6.322-1c-.242-.133-.643.22-.522.468a5.438,5.438,0,0,0,1.385,2.082,10.486,10.486,0,0,0,5.944.908.158.158,0,0,1,.036,0c.267.016.932.534,1.523.761.935.26,5.027-1.962,6.059-2.545a8.375,8.375,0,0,0,3.038-2.372,4.735,4.735,0,0,0,.1-1.385,4.259,4.259,0,0,1,.28-.764.243.243,0,0,0,.022-.1,9.719,9.719,0,0,0-.167-1.72.26.26,0,0,1-.006-.054c-.008-1.249-.537-2.1-.537-1.444a3.314,3.314,0,0,1-.886,2.51c-.015.012-.025.021-.041.033C654.3,387.045,646.762,391.221,644.834,391.359Z" transform="translate(-637.967 -383.967)" fill="#272727"/>
        </g>
        <g id="Group_10427" data-name="Group 10427" transform="translate(33.275 16.219)">
          <g id="Group_10424" data-name="Group 10424">
            <path id="Path_9384" data-name="Path 9384" d="M644.83,391.359a10.708,10.708,0,0,1-6.323-1c-.242-.133-.643.22-.522.468a5.44,5.44,0,0,0,1.385,2.083,10.487,10.487,0,0,0,5.944.908.156.156,0,0,1,.036,0c.267.016.932.534,1.523.761.935.26,5.027-1.962,6.059-2.545,2.178-1.231,2.879-2.107,2.995-2.346a5.135,5.135,0,0,0,.1-1.445,3.128,3.128,0,0,1,.314-.722.247.247,0,0,0,.032-.123,9.688,9.688,0,0,0-.167-1.708.26.26,0,0,1-.006-.054c-.008-1.249-.537-2.1-.537-1.444a3.314,3.314,0,0,1-.886,2.51c-.015.012-.025.021-.041.033C654.3,387.045,646.758,391.221,644.83,391.359Z" transform="translate(-637.962 -383.967)" fill="#272727"/>
          </g>
          <g id="Group_10425" data-name="Group 10425" transform="translate(16.566 0.76)">
            <path id="Path_9385" data-name="Path 9385" d="M926.38,397.153l.009.014a1.872,1.872,0,0,1,.167.341,1.341,1.341,0,0,1-.023,1.052.752.752,0,0,1-.265.3.255.255,0,0,1-.3.014.862.862,0,0,0-.224-.107,2.463,2.463,0,0,0-.254-.069c-.053-.011-.1-.021-.146-.029Z" transform="translate(-925.343 -397.153)" fill="none" stroke="rgba(255,255,255,0.9)" stroke-width="3.415"/>
          </g>
          <g id="Group_10426" data-name="Group 10426" transform="translate(2.348 6.884)">
            <path id="Path_9386" data-name="Path 9386" d="M678.7,503.395l4.829.073h0a1.291,1.291,0,0,1,.044.163,1.161,1.161,0,0,1,0,.51.973.973,0,0,1-.381.553,2.375,2.375,0,0,1-1.12.389,3.984,3.984,0,0,1-1.219-.045,2.935,2.935,0,0,1-1.279-.545,4,4,0,0,1-.632-.742C678.838,503.614,678.755,503.488,678.7,503.395Z" transform="translate(-678.695 -503.395)" fill="none" stroke="rgba(255,255,255,0.9)" stroke-width="3.415"/>
          </g>
        </g>
        <g id="Group_10428" data-name="Group 10428" transform="translate(24.694 4.324)">
          <path id="Path_9387" data-name="Path 9387" d="M493.581,190.835c-1.294-.536-2.817-5.107-4.422-7.917a.4.4,0,0,1,.2-.572l11.717-4.693a.305.305,0,0,1,.291.024c.4.273,1.746,1.364,5.173,5.406,1.06,1.251,1.217,1.406,1.747,1.987.079.086-.2.5-.48.725C506.666,186.732,496.7,192.127,493.581,190.835Z" transform="translate(-489.105 -177.628)" fill="#fff"/>
        </g>
        <g id="Group_10429" data-name="Group 10429" transform="translate(13.728 5.73)">
          <path id="Path_9388" data-name="Path 9388" d="M307.993,205.954c-1.966-1.067-6.534-3.23-7.966-3.9a.376.376,0,0,0-.531.27c-.244,1.25-.854,4.548-.546,4.718,7.2,3.984,9.63,5.168,10.006,5.348.632.3,2.144,1.263,1.876.483C310.413,211.65,309.193,206.606,307.993,205.954Z" transform="translate(-298.865 -202.014)" fill="#fff"/>
        </g>
        <g id="Group_10430" data-name="Group 10430" transform="translate(27.435 17.538)">
          <path id="Path_9389" data-name="Path 9389" d="M542.9,411.14a23.373,23.373,0,0,1-6.253-4.281c5.116,1.347,15.827,4.311,15.668,4.53-.2.274-.952.615-3.479.863A14.817,14.817,0,0,1,542.9,411.14Z" transform="translate(-536.651 -406.859)" fill="#2a2a2a"/>
        </g>
        <path id="Path_9390" data-name="Path 9390" d="M501.212,234.721l-9.353-7.907c-.87.363-3.618,1.5-4.021,1.656a3.274,3.274,0,0,0-.746.364c-.1.1-.172,0,0,.309.309.555.753,1.474,1.392,2.83,1.128,2.393,2.2,5,3.175,5.286,1.292.382,3.388-.131,5.059-.682C498.211,236.084,500.1,235.171,501.212,234.721Z" transform="translate(-462.415 -219.654)" fill="rgba(196,196,196,0.2)"/>
        <g id="Group_10431" data-name="Group 10431" transform="translate(14.022 13.347)">
          <path id="Path_9391" data-name="Path 9391" d="M305.463,334.881a.1.1,0,0,0-.057-.091l-1.287-.626a.1.1,0,0,0-.145.091v.261a.1.1,0,0,0,.057.091l1.287.623a.1.1,0,0,0,.145-.091Z" transform="translate(-303.974 -334.154)" fill="#323232"/>
        </g>
        <g id="Group_10432" data-name="Group 10432" transform="translate(9.275 11.028)">
          <path id="Path_9392" data-name="Path 9392" d="M223.1,294.647a.1.1,0,0,0-.057-.091l-1.287-.626a.1.1,0,0,0-.145.091v.261a.1.1,0,0,0,.057.091l1.287.623a.1.1,0,0,0,.145-.091Z" transform="translate(-221.61 -293.92)" fill="#323232"/>
        </g>
        <g id="Group_10433" data-name="Group 10433" transform="translate(2.94 0.632)">
          <path id="Path_9393" data-name="Path 9393" d="M113.21,113.615l8.287,4.065a.392.392,0,0,1,.2.453,27.407,27.407,0,0,0-.779,4.534c-.027.318-7.859-3.514-8.759-4.241-.934-.754-.222-3.294.57-4.674A.361.361,0,0,1,113.21,113.615Z" transform="translate(-111.72 -113.576)" fill="#fff"/>
        </g>
        <g id="Group_10434" data-name="Group 10434" transform="translate(0 0)">
          <path id="Path_9394" data-name="Path 9394" d="M63.284,104.473c.776-1.31.856-1.784.36-1.861a11.77,11.77,0,0,0-2.919,4.25c-.062.231.43.153.97-.228S62.313,106.11,63.284,104.473Z" transform="translate(-60.72 -102.612)" fill="#fff"/>
        </g>
        <g id="Group_10435" data-name="Group 10435" transform="translate(1.627 8.863)">
          <path id="Path_9395" data-name="Path 9395" d="M89.085,256.433l-.143-.073q.072.035.143.073l19.932,10.136a.16.16,0,0,1,0,.28,3.644,3.644,0,0,0-1.925,3.089.152.152,0,0,1-.217.13L92.7,262.911a.158.158,0,0,1-.085-.136C92.566,261.784,91.395,257.678,89.085,256.433Z" transform="translate(-88.943 -256.36)" fill="#2a2a2a"/>
        </g>
      </g>
    </g>
  </g>
</svg>
