<svg id="Group_10560" data-name="Group 10560" xmlns="http://www.w3.org/2000/svg" width="80.484" height="79.931" viewBox="0 0 80.484 79.931">
  <g id="Group_10558" data-name="Group 10558" transform="translate(0 0)">
    <ellipse id="Ellipse_409" data-name="Ellipse 409" cx="29.96" cy="30.522" rx="29.96" ry="30.522" transform="matrix(0.417, -0.909, 0.909, 0.417, 0, 54.45)" fill="#e06074" opacity="0.49"/>
    <ellipse id="Ellipse_410" data-name="Ellipse 410" cx="23.486" cy="23.927" rx="23.486" ry="23.927" transform="translate(8.697 51.322) rotate(-65.331)" fill="#e06074"/>
  </g>
  <g id="Group_10559" data-name="Group 10559" transform="translate(8.625 34.5)">
    <path id="Path_10171" data-name="Path 10171" d="M247.124,403.492c-2.381,2.46-6.078,2.735-8.283.392l-.036-.039a6.264,6.264,0,0,1-1.739-5.121c.308-1.941,1.662-3.527,2.96-4.963a25.876,25.876,0,0,1,4.088-3.887,7.972,7.972,0,0,1,5.044-1.657,3.9,3.9,0,0,1,3.208,1.907c.842,1.571.367,3.647-.3,5.416A22.238,22.238,0,0,1,247.124,403.492Z" transform="translate(-218.298 -388.203)" fill="#37193a"/>
    <path id="Path_10172" data-name="Path 10172" d="M246.792,400.274a10.691,10.691,0,0,0-9.273,10.026c-.1,2.026.316,4.1.325,6.142s-.483,4.182-2.023,5.352c-2.054,1.561-5.185.9-7.666,1.753A6.074,6.074,0,0,0,224.2,428.4a2.082,2.082,0,0,1-.315-2.462,7.845,7.845,0,0,1,5.921-4.708c1.5-.256,3.154-.129,4.428-.88a5.122,5.122,0,0,0,2.12-4.13c.134-1.65-.127-3.349-.113-5.017a13.514,13.514,0,0,1,7.165-11.934,4.769,4.769,0,0,1,2.072-.614C246.22,398.647,247.038,398.945,246.792,400.274Z" transform="translate(-223.633 -384.031)" fill="#37193a"/>
  </g>
</svg>
