<svg xmlns="http://www.w3.org/2000/svg" xmlns:xlink="http://www.w3.org/1999/xlink" width="112.785" height="112.785" viewBox="0 0 112.785 112.785">
  <defs>
    <clipPath id="clip-path">
      <circle id="Ellipse_419" data-name="Ellipse 419" cx="56.392" cy="56.392" r="56.392" fill="#f5cec5"/>
    </clipPath>
  </defs>
  <g id="Mask_Group_4" data-name="Mask Group 4" clip-path="url(#clip-path)">
    <g id="Group_10584" data-name="Group 10584" transform="translate(8.344 14.522)">
      <g id="Group_10557" data-name="Group 10557" transform="translate(0 0)">
        <g id="Group_10550" data-name="Group 10550" transform="translate(0 9.56)">
          <path id="Path_10151" data-name="Path 10151" d="M159.284,261.635c3.013.165,5.891-1.338,8.294-3.213a6.621,6.621,0,0,0,2.639-3.427,5.147,5.147,0,0,0-1.954-4.924c-1.412-1.179-3.194-1.762-5.981-2.543" transform="translate(-82.717 -223.634)" fill="#faac98"/>
          <path id="Path_10152" data-name="Path 10152" d="M159.156,248.9A18.72,18.72,0,0,0,170.5,239.66a10.008,10.008,0,0,0,1.346-4.864,5.081,5.081,0,0,0-2.288-4.288,5.382,5.382,0,0,0-5.371.48,27.731,27.731,0,0,0-4.268,3.787,26.4,26.4,0,0,1-8.856,5.552,6.891,6.891,0,0,0-3.285,1.893,6.983,6.983,0,0,0-1.018,2.85,38.78,38.78,0,0,1-4.592,11.725c-1.6,2.685-3.592,5.368-3.714,8.517-.108,2.815,1.311,5.411,2.332,8.024,2.384,6.1,2.693,12.882,1.89,19.4s-3.415,18.693-3.415,18.693H121.121s-3.823-29.858-1.158-35.69a53.911,53.911,0,0,0,2.622-5.334c1.57-4.77-.672-9.928-3.189-14.247s-5.468-8.779-5.643-14.019a30.567,30.567,0,0,1-15.395-7.961c-1.987-1.906-4.537-4.281-7.017-3.136a4.144,4.144,0,0,0-2.153,3.477,8.649,8.649,0,0,0,.923,4.172,18.085,18.085,0,0,0,8.28,8.67c2.89,1.447,6.47,2.357,7.871,5.334,1.361,2.9-.3,6.655-3.094,8.1s-6.271.88-8.948-.778a20.856,20.856,0,0,1-6.354-6.975,31.213,31.213,0,0,1-4.7-11.887,17.389,17.389,0,0,1,2.553-12.336c2.448-3.5,6.77-5.705,10.9-4.97,5.655,1.007,9.759,6.951,15.487,7.318,2.866.185,5.6-1.089,8.256-2.224,5.661-2.424,12.056-4.338,17.833-2.227,2.977,1.087,5.6,3.192,8.7,3.8,3.253.634,6.587-.472,9.6-1.894s5.9-3.19,9.117-4,6.943-.5,9.352,1.843c1.856,1.8,2.631,4.487,2.979,7.087a29.55,29.55,0,0,1-1.96,15.128,16.814,16.814,0,0,1-5.187,7.225,8.844,8.844,0,0,1-8.36,1.439C159.678,256.242,157.714,253.044,159.156,248.9Z" transform="translate(-82.959 -223.709)" fill="#faac98"/>
          <path id="Path_10153" data-name="Path 10153" d="M104.018,258.1a19.943,19.943,0,0,0,10.239-8.248,11.6,11.6,0,0,0,1.73-4.272,6.282,6.282,0,0,0-.854-4.46,16.4,16.4,0,0,1-7.055,9.47c-1.436.888-3.05,1.575-4.133,2.889S102.584,257.047,104.018,258.1Z" transform="translate(-82.896 -223.654)" fill="#faac98"/>
          <g id="Group_10549" data-name="Group 10549" transform="translate(7.432 8.038)">
            <path id="Path_10154" data-name="Path 10154" d="M147.7,242.017a12.482,12.482,0,0,0,7.48,9.362,34.7,34.7,0,0,1,7.567-4.095c-.418.348-1.18.723-1.384,1.235a1.167,1.167,0,0,0,.4,1.452c.575.293,1.334-.167,1.883.174.977.606-.241,2.356.429,3.306.858,1.216,3.085-.686,4.1.392.409.434.36,1.136.6,1.687s1.587.468,1.587.468-5.356,5.063-8.56,5.548c-3.332.5-5.783.779-8.557-4.628a36.3,36.3,0,0,1-4.944-4.031,14.364,14.364,0,0,1-2.608-4.545C145.613,248.072,146.821,242.867,147.7,242.017Z" transform="translate(-90.193 -231.689)" fill="#e78e78"/>
            <path id="Path_10155" data-name="Path 10155" d="M113.73,242.081c-.59,4.764-5.491,8.649-7.908,9.826a9.244,9.244,0,0,0-7.749-4.661,3.9,3.9,0,0,1,1.4,1.242,1.393,1.393,0,0,1-.191,1.744,2.137,2.137,0,0,1-1.553.185,1.459,1.459,0,0,0-1.454.454c-.434.709.346,1.6.251,2.433a1.155,1.155,0,0,1-1.779.758c-.317-.257-.559-.716-.961-.69s-.589.517-.547.916.23.775.235,1.177a1.3,1.3,0,0,1-1,1.257c-.562.109-1.713.3-2.106-.184a12.133,12.133,0,0,0,8.011,5.259,8.1,8.1,0,0,0,8-4.375,26.99,26.99,0,0,0,8.875-8.922A20.71,20.71,0,0,1,113.73,242.081Z" transform="translate(-90.368 -231.689)" fill="#e78e78"/>
            <path id="Path_10156" data-name="Path 10156" d="M157.8,235.991c-4.92,2.6-9.47,5.545-13.941,15.308s-3.417,16.092-3.944,23.745a7.387,7.387,0,0,1,6.012,4.346c.846,2.081.586,4.3.319,6.462-1.071,8.674-3.116,25.665-3.116,25.665H128.912s-1.419-17.635-2.434-26.7a12.029,12.029,0,0,1,1.282-6.7c1.074-1.986,2.577-3.778,5.47-3.416-.79-7.018,2.527-11.374-2.369-21.053s-12.305-17.358-17.213-17.663C125.438,230.695,146.929,229.916,157.8,235.991Z" transform="translate(-95.972 -231.722)" fill="#e78e78"/>
          </g>
        </g>
        <g id="Group_10552" data-name="Group 10552" transform="translate(39.463 21.49)">
          <path id="Path_10157" data-name="Path 10157" d="M123.019,240.245a8.179,8.179,0,1,1,4.082,10.708A8.1,8.1,0,0,1,123.019,240.245Z" transform="translate(-122.297 -235.602)" fill="#e06074" opacity="0.49"/>
          <path id="Path_10158" data-name="Path 10158" d="M124.607,240.971a6.426,6.426,0,1,1,3.206,8.414A6.366,6.366,0,0,1,124.607,240.971Z" transform="translate(-122.292 -235.596)" fill="#e06074"/>
          <g id="Group_10551" data-name="Group 10551" transform="translate(5.121 3.926)">
            <path id="Path_10159" data-name="Path 10159" d="M127.4,240.725a1.211,1.211,0,1,1,1.211,1.211A1.211,1.211,0,0,1,127.4,240.725Z" transform="translate(-127.402 -239.515)" fill="#633566"/>
            <path id="Path_10160" data-name="Path 10160" d="M131.961,243.139a1.211,1.211,0,1,1,1.211,1.211A1.211,1.211,0,0,1,131.961,243.139Z" transform="translate(-127.388 -239.507)" fill="#633566"/>
            <path id="Path_10161" data-name="Path 10161" d="M128.012,245.552a1.21,1.21,0,1,1,1.21,1.211A1.21,1.21,0,0,1,128.012,245.552Z" transform="translate(-127.4 -239.5)" fill="#633566"/>
          </g>
        </g>
        <circle id="Ellipse_408" data-name="Ellipse 408" cx="40.678" cy="40.678" r="40.678" transform="translate(6.939)" fill="none"/>
      </g>
      <g id="Group_10583" data-name="Group 10583" transform="translate(40.701 39.668)">
        <path id="Path_10162" data-name="Path 10162" d="M137.535,308.29s-.212-26.131,0-39.23l-13.83-.013V308.29Z" transform="translate(-123.705 -239.96)" fill="#9fafcd" opacity="0.659"/>
        <path id="Path_10163" data-name="Path 10163" d="M130.9,266V239.805a1.77,1.77,0,0,0-.766.3,1.423,1.423,0,0,0-.4.654L129.693,266Z" transform="translate(-123.382 -239.805)" fill="#fefef9"/>
        <path id="Path_10166" data-name="Path 10166" d="M126.759,288.693v19.535h5.924V288.693Z" transform="translate(-122.746 -239.898)" fill="#fefef9"/>
        <path id="Path_10167" data-name="Path 10167" d="M127.4,274.887a1.984,1.984,0,1,1,1.983,1.983A1.984,1.984,0,0,1,127.4,274.887Z" transform="translate(-123.046 -242.093)" fill="#e06074"/>
        <path id="Path_10168" data-name="Path 10168" d="M130.755,280.884a1.428,1.428,0,1,1,1.427,1.428A1.427,1.427,0,0,1,130.755,280.884Z" transform="translate(-122.432 -240.893)" fill="#e06074"/>
        <path id="Path_10169" data-name="Path 10169" d="M126.805,283.834a1.428,1.428,0,1,1,1.428,1.428A1.428,1.428,0,0,1,126.805,283.834Z" transform="translate(-123.156 -240.352)" fill="#e06074"/>
        <rect id="Rectangle_3759" data-name="Rectangle 3759" width="9.029" height="3.511" rx="0.5" transform="translate(2.401 45.447)" fill="#fefef9"/>
        <path id="Rectangle_3760" data-name="Rectangle 3760" d="M2,0H6.538a2,2,0,0,1,2,2V3.511a0,0,0,0,1,0,0H0a0,0,0,0,1,0,0V2A2,2,0,0,1,2,0Z" transform="translate(2.646 25.578)" fill="#9fafcd"/>
        <path id="Path_10170" data-name="Path 10170" d="M125.964,269.049V308.29h9.986V269.059Z" transform="translate(-123.957 -239.96)" fill="#e6eeff" opacity="0.49"/>
      </g>
    </g>
  </g>
</svg>
