<svg xmlns="http://www.w3.org/2000/svg" width="16" height="16" viewBox="0 0 16 16">
  <g id="Group_10663" data-name="Group 10663" transform="translate(-611 -1547)">
    <path id="Polygon_8" data-name="Polygon 8" d="M7.224.955a1,1,0,0,1,1.552,0l.538.663a1,1,0,0,0,1.086.32l.805-.263a1,1,0,0,1,1.3.836l.1.873a1,1,0,0,0,.735.851l.837.224a1,1,0,0,1,.642,1.4l-.389.8a1,1,0,0,0,.159,1.107l.6.659a1,1,0,0,1-.22,1.524l-.75.459a1,1,0,0,0-.464,1.02l.149.877a1,1,0,0,1-1.013,1.167l-.854-.023a1,1,0,0,0-.949.612l-.336.8a1,1,0,0,1-1.489.436l-.7-.48a1,1,0,0,0-1.134,0l-.7.48a1,1,0,0,1-1.489-.436l-.336-.8a1,1,0,0,0-.949-.612l-.854.023A1,1,0,0,1,2.1,12.313l.149-.877a1,1,0,0,0-.464-1.02l-.75-.459A1,1,0,0,1,.81,8.433l.6-.659a1,1,0,0,0,.159-1.107l-.389-.8a1,1,0,0,1,.642-1.4l.837-.224a1,1,0,0,0,.735-.851l.1-.873a1,1,0,0,1,1.3-.836l.805.263a1,1,0,0,0,1.086-.32Z" transform="translate(611 1547)" fill="#1b0968"/>
    <g id="Group_10662" data-name="Group 10662" transform="translate(615.35 1552.697)">
      <line id="Line_434" data-name="Line 434" x2="2.694" y2="2.694" transform="translate(0 2.02)" fill="none" stroke="#fff" stroke-linecap="round" stroke-width="1"/>
      <line id="Line_435" data-name="Line 435" x1="4.714" y2="4.714" transform="translate(2.694)" fill="none" stroke="#fff" stroke-linecap="round" stroke-width="1"/>
    </g>
  </g>
</svg>
