<svg xmlns="http://www.w3.org/2000/svg" width="87.734" height="75.061" viewBox="0 0 87.734 75.061">
  <g id="Group_10608" data-name="Group 10608" transform="translate(0 0)">
    <ellipse id="Ellipse_420" data-name="Ellipse 420" cx="42.797" cy="2.409" rx="42.797" ry="2.409" transform="translate(0.173 70.244)" fill="#f26474" opacity="0.7"/>
    <g id="Group_10592" data-name="Group 10592" transform="translate(19.393 7.502)">
      <g id="Group_10590" data-name="Group 10590" transform="translate(3.919)">
        <path id="Path_10339" data-name="Path 10339" d="M221.955,250.087h6.515l3.054,5.532H218.9Z" transform="translate(-205.64 -231.64)" fill="#173757" fill-rule="evenodd"/>
        <rect id="Rectangle_3761" data-name="Rectangle 3761" width="33.844" height="19.849" rx="6.883" transform="translate(2.65)" fill="#1f4469"/>
        <rect id="Rectangle_3762" data-name="Rectangle 3762" width="31.759" height="16.128" transform="translate(3.693 0.916)" fill="#5384b5"/>
        <path id="Path_10340" data-name="Path 10340" d="M311.657,249.664a.2.2,0,1,0-.2-.2A.2.2,0,0,0,311.657,249.664Z" transform="translate(-277.07 -230.999)" fill="#808281" fill-rule="evenodd"/>
        <rect id="Rectangle_3763" data-name="Rectangle 3763" width="39.145" height="1.672" rx="0.836" transform="translate(0 22.307)" fill="#173757"/>
      </g>
      <rect id="Rectangle_3764" data-name="Rectangle 3764" width="46.984" height="2.352" transform="translate(0 24.108)" fill="#1f4469"/>
      <g id="Group_10591" data-name="Group 10591" transform="translate(4.788 28.283)">
        <path id="Path_10341" data-name="Path 10341" d="M164.6,315.6h2.329l4.392-35.553h-2.33Z" transform="translate(-164.596 -280.042)" fill="#b6d8fa" fill-rule="evenodd"/>
        <path id="Path_10342" data-name="Path 10342" d="M307.89,315.6h-2.329l-4.392-35.553H303.5Z" transform="translate(-270.001 -280.042)" fill="#b6d8fa" fill-rule="evenodd"/>
      </g>
    </g>
    <g id="Group_10597" data-name="Group 10597" transform="translate(0 3.66)">
      <path id="Path_10343" data-name="Path 10343" d="M203.6,421.034l-7.336-1.5.1-.438,7.336,1.5Z" transform="translate(-166.523 -355.236)" fill="#fff" fill-rule="evenodd"/>
      <path id="Path_10344" data-name="Path 10344" d="M159.291,336.4l2.476,20.04h-2.329l-2.476-20.04Z" transform="translate(-136.192 -291.412)" fill="#b6d8fa" fill-rule="evenodd"/>
      <path id="Path_10345" data-name="Path 10345" d="M159.687,310.659c-2.283,3.226-3.622,9.151-6.008,15.321.994.922.622,1.741,2.027,1.563,2.015-4.878,7.026-11.576,8.452-13.922C167.909,307.45,164.57,303.759,159.687,310.659Z" transform="translate(-133.659 -268.673)" fill="#f7bfb2" fill-rule="evenodd"/>
      <g id="Group_10593" data-name="Group 10593" transform="translate(18.756 56.256)">
        <path id="Path_10346" data-name="Path 10346" d="M148.14,392.363l6.8,3.14.189-.408a1.629,1.629,0,0,0-.746-2.028l-5.03-3.324Z" transform="translate(-148.14 -388.838)" fill="#ffebc7" fill-rule="evenodd"/>
        <path id="Path_10347" data-name="Path 10347" d="M152.85,386.857l.381-1.079,2.459.914-.679,1.275C154.325,389.253,152.365,388.23,152.85,386.857Z" transform="translate(-151.716 -385.778)" fill="#f7bfb2" fill-rule="evenodd"/>
        <rect id="Rectangle_3765" data-name="Rectangle 3765" width="0.449" height="7.488" transform="matrix(0.419, -0.908, 0.908, 0.419, 0, 3.525)" fill="#fff" stroke="#ffebc7" stroke-miterlimit="22.926" stroke-width="0.216"/>
      </g>
      <path id="Path_10348" data-name="Path 10348" d="M71.185,235.248h0a5.1,5.1,0,0,0-5.133,6.242l2.992,16.842H81.529L78.536,241.49A7.809,7.809,0,0,0,71.185,235.248Z" transform="translate(-65.954 -214.918)" fill="#5384b5" fill-rule="evenodd"/>
      <path id="Path_10349" data-name="Path 10349" d="M81.849,244.387h0a4.227,4.227,0,0,0-4.255,5.174l2.48,13.96H90.422l-2.48-13.96A6.472,6.472,0,0,0,81.849,244.387Z" transform="translate(-74.875 -221.957)" fill="#6a9ccf" fill-rule="evenodd"/>
      <path id="Path_10350" data-name="Path 10350" d="M134.832,176.691c.492-.165,1.146.463,1.46,1.4s.171,1.834-.32,2-1.145-.463-1.46-1.4S134.341,176.856,134.832,176.691Z" transform="translate(-118.737 -171.132)" fill="#fbc9be" fill-rule="evenodd"/>
      <path id="Path_10351" data-name="Path 10351" d="M87.773,336.4,85.3,356.439h2.33L90.1,336.4Z" transform="translate(-80.883 -291.412)" fill="#b6d8fa" fill-rule="evenodd"/>
      <path id="Path_10352" data-name="Path 10352" d="M196.261,411.492l7.336,1.5.1-.438a1.589,1.589,0,0,0-1.161-1.8l-5.64-2.082Z" transform="translate(-166.523 -347.195)" fill="#ffebc7" fill-rule="evenodd"/>
      <path id="Path_10353" data-name="Path 10353" d="M197.9,406.315l-.2-1.11,2.477-.7.085,1.394C200.351,407.353,198.157,407.748,197.9,406.315Z" transform="translate(-167.634 -343.973)" fill="#fbc9be" fill-rule="evenodd"/>
      <path id="Path_10354" data-name="Path 10354" d="M182.262,316.005c.123,6.128,2.52,11.332,3.739,17.219,1.13.367,1.405.3,2.327-.641-.543-6.583-.233-16.3-.174-18.621C188.261,309.689,182.074,306.63,182.262,316.005Z" transform="translate(-155.715 -270.929)" fill="#fbc9be" fill-rule="evenodd"/>
      <path id="Path_10355" data-name="Path 10355" d="M114.72,298.683a72.861,72.861,0,0,0,13.027-.156c1-2.126,3.262-3.62,5.638-4.546-6.966-4.229-14.34-4.79-21.473-4.667C110.444,293.69,111.838,298.555,114.72,298.683Z" transform="translate(-100.968 -256.3)" fill="#1f4469" fill-rule="evenodd"/>
      <path id="Path_10356" data-name="Path 10356" d="M208.883,261.172c-1.259.982.031,1.955,2.851,1.955H214.4C215.419,263.146,218.218,262.813,208.883,261.172Z" transform="translate(-175.892 -235.13)" fill="#e3b8ae" fill-rule="evenodd"/>
      <path id="Path_10357" data-name="Path 10357" d="M155.581,257.857c2.961.911,9.481.825,11.879.628a5.077,5.077,0,0,0,.454-2.644c-2.234-.377-8.066-.436-10.737-.9C152.331,254.107,152.967,257.053,155.581,257.857Z" transform="translate(-133.575 -230.244)" fill="#fff6e5" fill-rule="evenodd"/>
      <path id="Path_10358" data-name="Path 10358" d="M127.872,224.351c3.376-3.47,6.851,3.579,10.285,6.374,2.264,1.843.614,3.864-2.246,2.636S124.987,227.316,127.872,224.351Z" transform="translate(-113.267 -206.283)" fill="#fff6e5" fill-rule="evenodd"/>
      <path id="Path_10359" data-name="Path 10359" d="M113.863,203.768c-5.348,8.163-1.965,15.973-4.544,22.389,3.376-.213,8.688-2.512,11.34-2.309-.227-7.374,2.716-8.295.928-11.7-1.522-2.39-2.231-3.444-3.957-6.174A13.963,13.963,0,0,1,113.863,203.768Z" transform="translate(-99.422 -191.18)" fill="#ffebc7" fill-rule="evenodd"/>
      <path id="Path_10360" data-name="Path 10360" d="M124.865,193.316c1.139-1.747,1.84-4.242,2.58-5.3l3.018,2.253c-1.729,2.745-1.064,3.245-.335,4.339A9.816,9.816,0,0,1,124.865,193.316Z" transform="translate(-111.421 -179.896)" fill="#fbc9be" fill-rule="evenodd"/>
      <path id="Path_10361" data-name="Path 10361" d="M123.423,156.8a36.247,36.247,0,0,1,1.029,3.72,5.984,5.984,0,0,1,.355,2.568c-.375,1.43-.588,2.4-1.253,2.985-.378.331-.439.327-1.147.14-2.223-.587-3.433-1.964-3.433-5.211,0-2.58-6.241-3.062-3.969-4.873C117.936,153.792,122.726,154.643,123.423,156.8Z" transform="translate(-103.427 -154.204)" fill="#fbc9be" fill-rule="evenodd"/>
      <path id="Path_10362" data-name="Path 10362" d="M154.507,176.747c.54,1.735,2.179,2.513.251,3.007S153.811,175.872,154.507,176.747Z" transform="translate(-133.621 -171.106)" fill="#fbc9be" fill-rule="evenodd"/>
      <path id="Path_10363" data-name="Path 10363" d="M124.61,223.363c2.208,1.259,4.874,5.111,7.3,7.09,2.264,1.843.614,3.864-2.246,2.636a22.848,22.848,0,0,1-6.8-4.417C120.05,225.684,122.152,221.962,124.61,223.363Z" transform="translate(-108.84 -206.015)" fill="#fff" fill-rule="evenodd"/>
      <path id="Path_10364" data-name="Path 10364" d="M205.526,261.172c-1.259.982.031,1.955,2.851,1.955h2.668C212.062,263.146,214.861,262.813,205.526,261.172Z" transform="translate(-173.301 -235.13)" fill="#fbc9be" fill-rule="evenodd"/>
      <path id="Path_10365" data-name="Path 10365" d="M152.224,257.857c2.961.911,9.48.825,11.879.628a5.077,5.077,0,0,0,.454-2.644c-2.234-.377-8.066-.436-10.737-.9C148.974,254.107,149.611,257.053,152.224,257.857Z" transform="translate(-130.984 -230.244)" fill="#fff" fill-rule="evenodd"/>
      <g id="Group_10594" data-name="Group 10594" transform="translate(6.516 0)">
        <path id="Path_10366" data-name="Path 10366" d="M94.954,171.046c2.547-3.388-1.247-6.873-.287-9.783s3.929-2.522,5.472-1.579C100.591,166.062,101.066,172.257,94.954,171.046Z" transform="translate(-94.508 -157.493)" fill="#1f4469" fill-rule="evenodd"/>
        <path id="Path_10367" data-name="Path 10367" d="M114.638,162c-1.037-.326-2.028,2.1-.995,2.423S115.671,162.322,114.638,162Z" transform="translate(-108.939 -159.789)" fill="#fff" fill-rule="evenodd"/>
        <path id="Path_10368" data-name="Path 10368" d="M124.593,156.205c1.077-2.254-5.595-5.684-8.524-2.48-2.873,3.143-2.48,6.87,1.62,10.117,1.1-1.211,1.506-1.564,1.532-3.3C120.3,162.077,124.861,157.145,124.593,156.205Z" transform="translate(-109.713 -152.421)" fill="#1f4469" fill-rule="evenodd"/>
        <path id="Path_10369" data-name="Path 10369" d="M135.32,177.54c.453-.025.859.657.907,1.524s-.282,1.589-.735,1.613-.859-.657-.907-1.523S134.867,177.565,135.32,177.54Z" transform="translate(-125.436 -171.807)" fill="#fbc9be" fill-rule="evenodd"/>
      </g>
      <rect id="Rectangle_3766" data-name="Rectangle 3766" width="21.681" height="2.352" transform="translate(3.09 41.602)" fill="#5384b5"/>
      <g id="Group_10595" data-name="Group 10595" transform="translate(19.635 9.276)">
        <path id="Path_10370" data-name="Path 10370" d="M153.554,193.613a3.877,3.877,0,0,1-1.563-.548c.473.09,1.217.231,1.607.254C153.581,193.42,153.567,193.518,153.554,193.613Z" transform="translate(-151.991 -193.065)" fill="#f0b7aa" fill-rule="evenodd"/>
        <path id="Path_10371" data-name="Path 10371" d="M156.107,195.986a2.1,2.1,0,0,1-.742-.373,3.359,3.359,0,0,0,.762.2Z" transform="translate(-154.595 -195.032)" fill="#f0b7aa" fill-rule="evenodd"/>
      </g>
      <path id="Path_10372" data-name="Path 10372" d="M94.68,194.277c2.782.578,3.173-1.475,2.168-3.026-.574-.347-1.226-.347-1.182-.169C96.039,192.6,95.652,194.035,94.68,194.277Z" transform="translate(-88.124 -182.168)" fill="#1f4469" fill-rule="evenodd"/>
      <path id="Path_10373" data-name="Path 10373" d="M147.188,185.537c-.484.069-.85.376-.818.685s.45.5.933.434.85-.376.818-.685S147.672,185.468,147.188,185.537Z" transform="translate(-128.016 -177.969)" fill="#fa7382" fill-rule="evenodd" opacity="0.1"/>
      <path id="Path_10374" data-name="Path 10374" d="M105.5,171.828c2.774-.884-.215-7.24,1.764-7.94C103.97,164.564,106.838,169.826,105.5,171.828Z" transform="translate(-96.476 -161.271)" fill="#325e8a" fill-rule="evenodd"/>
      <path id="Path_10375" data-name="Path 10375" d="M159.468,336.4l.1.8h-2.33l-.1-.8Z" transform="translate(-136.328 -292.381)" fill="#7cb1e6" fill-rule="evenodd"/>
      <path id="Path_10376" data-name="Path 10376" d="M95.813,336.4l-.1.8h2.33l.1-.8Z" transform="translate(-88.923 -292.381)" fill="#7cb1e6" fill-rule="evenodd"/>
      <path id="Path_10377" data-name="Path 10377" d="M183.509,280.042l-.1.8h2.329l.1-.8Z" transform="translate(-156.605 -249.508)" fill="#7cb1e6" fill-rule="evenodd"/>
      <path id="Path_10378" data-name="Path 10378" d="M139.38,198.371a2.863,2.863,0,0,0,1.366,1.232h0l.14.058-.2.579S139.422,199.463,139.38,198.371Z" transform="translate(-122.623 -187.884)" fill="#f0b7aa" fill-rule="evenodd"/>
      <path id="Path_10379" data-name="Path 10379" d="M153.886,179.349a.245.245,0,0,1,.265.23.256.256,0,0,1-.244.261.245.245,0,0,1-.265-.23A.256.256,0,0,1,153.886,179.349Z" transform="translate(-133.63 -173.203)" fill="#192f45" fill-rule="evenodd"/>
      <path id="Path_10380" data-name="Path 10380" d="M151.263,175.157c.185.056.256-.3.071-.353a2.553,2.553,0,0,0-1.561.122c-.184.061-.112.269.073.208A2.359,2.359,0,0,1,151.263,175.157Z" transform="translate(-130.562 -169.636)" fill="#1f4469" fill-rule="evenodd"/>
      <path id="Path_10381" data-name="Path 10381" d="M154.32,164.512c2.334-1.621,1.11-3.835-.707-4.172-.647.177-1.1.65-.936.741C154.034,161.854,154.813,163.641,154.32,164.512Z" transform="translate(-132.86 -158.533)" fill="#1f4469" fill-rule="evenodd"/>
      <path id="Path_10382" data-name="Path 10382" d="M156.541,163.555c1.634-2.325-.182-4.227-2-3.919-.546.389-.8.988-.624,1.018C155.453,160.912,156.7,162.567,156.541,163.555Z" transform="translate(-133.794 -157.964)" fill="#1f4469" fill-rule="evenodd"/>
      <g id="Group_10596" data-name="Group 10596" transform="translate(15.998 6.236)">
        <path id="Path_10383" data-name="Path 10383" d="M136.517,179.749c-.368-.053-.611.634-.359,1.246" transform="translate(-136.055 -179.746)" fill="none" stroke="#e6afa3" stroke-linecap="round" stroke-linejoin="round" stroke-width="0.72" fill-rule="evenodd"/>
        <path id="Path_10384" data-name="Path 10384" d="M136.309,183.8a.424.424,0,0,1,.675.48" transform="translate(-136.251 -182.79)" fill="none" stroke="#e6afa3" stroke-linecap="round" stroke-linejoin="round" stroke-width="0.72" fill-rule="evenodd"/>
      </g>
      <path id="Path_10385" data-name="Path 10385" d="M143,164.541c2.8-.392,4.973-3.424,3.179-3.6C146.64,161.383,144.759,163.1,143,164.541Z" transform="translate(-125.414 -158.995)" fill="#325e8a" fill-rule="evenodd"/>
      <path id="Path_10386" data-name="Path 10386" d="M158.242,163.862c.964-1.807.354-3.3-1.314-3.029C157.571,160.831,158.464,162,158.242,163.862Z" transform="translate(-136.166 -158.889)" fill="#325e8a" fill-rule="evenodd"/>
      <path id="Path_10387" data-name="Path 10387" d="M97.888,166.8c.322-1.409-.131-4.551,3.341-4.676C97.265,160.782,97.229,165.351,97.888,166.8Z" transform="translate(-90.354 -159.722)" fill="#325e8a" fill-rule="evenodd"/>
    </g>
    <g id="Group_10599" data-name="Group 10599" transform="translate(32.09 9.52)">
      <g id="Group_10598" data-name="Group 10598" transform="translate(4.327 1.856)">
        <path id="Path_10388" data-name="Path 10388" d="M257.672,195.74c-.474-.291-1.24-.517-1.342-.149a.415.415,0,0,1-.043-.647c.037.364.968.585,1.2.131C257.779,194.747,258.18,195.421,257.672,195.74Z" transform="translate(-247.584 -192.955)" fill="#ffabb5" fill-rule="evenodd"/>
        <path id="Path_10389" data-name="Path 10389" d="M263.687,192.33c.179.333-.088.825-.6,1.1s-1.065.223-1.244-.11.088-.825.6-1.1S263.508,192,263.687,192.33Z" transform="translate(-251.936 -190.717)" fill="#ffebc7" fill-rule="evenodd"/>
        <path id="Path_10390" data-name="Path 10390" d="M263.767,192.743c.179.333-.088.825-.6,1.1s-1.065.223-1.244-.11a.447.447,0,0,1-.032-.075,1.1,1.1,0,0,0,1.1-.054c.471-.253.735-.694.628-1.023A.475.475,0,0,1,263.767,192.743Z" transform="translate(-252.017 -191.129)" fill="#ebd4aa" fill-rule="evenodd"/>
        <path id="Path_10391" data-name="Path 10391" d="M226.313,195.742c.474-.291,1.192-.516,1.294-.149a.415.415,0,0,0,.043-.647c-.037.364-.919.585-1.156.131C226.207,194.749,225.806,195.423,226.313,195.742Z" transform="translate(-224.368 -192.957)" fill="#ffabb5" fill-rule="evenodd"/>
        <path id="Path_10392" data-name="Path 10392" d="M219.664,192.33c-.179.333.088.825.6,1.1s1.065.223,1.244-.11-.088-.825-.6-1.1S219.843,192,219.664,192.33Z" transform="translate(-219.381 -190.717)" fill="#ffebc7" fill-rule="evenodd"/>
        <path id="Path_10393" data-name="Path 10393" d="M219.664,192.743c-.179.333.088.825.6,1.1s1.065.223,1.244-.11a.486.486,0,0,0,.032-.075,1.1,1.1,0,0,1-1.1-.054c-.472-.253-.735-.694-.628-1.023A.475.475,0,0,0,219.664,192.743Z" transform="translate(-219.381 -191.129)" fill="#ebd4aa" fill-rule="evenodd"/>
        <path id="Path_10394" data-name="Path 10394" d="M235.558,197.638h-1.064v-2.908c0-.014-1.175-1.17-.674-2.067.011-.02-3.2-6.433,1.739-6.433s1.727,6.413,1.738,6.433c.5.9-.674,2.053-.674,2.067v2.908Z" transform="translate(-229.565 -186.229)" fill="#ff7f8e" fill-rule="evenodd"/>
        <path id="Path_10395" data-name="Path 10395" d="M248.751,201.233l0-2.932c.188-.349,1.467-1.872.351-2.418-.257-.126,1.947-1.432,1.153-5,1.1,1.823-.659,5.356-.651,5.37.5.9-.674,2.053-.674,2.067v2.908Z" transform="translate(-241.87 -189.824)" fill="#f26474" fill-rule="evenodd"/>
        <path id="Path_10396" data-name="Path 10396" d="M224.6,187.785a4.058,4.058,0,0,0,.98-.25,14.415,14.415,0,0,1,2.271-.747c.262-.025,1.172.087,1.409.037.423-.09.861-.522,1.255-.311.372.2.2.7.056,1.007-.074.157.015.38-.11.621-.065.124-.1.092-.084,0,.011-.072-.041-.2-.1-.188-.088.013-.213.234-.276.176s.053-.169.046-.279c0-.062-.12-.1-.226-.115-.039-.006-.158-.071,0-.1a1,1,0,0,0,.551-.217c.138-.155.329-.565.075-.688-.336-.162-.76.346-1.092.465-.222.08-1.107.011-1.362.072-.506.121-1.738.9-1.793,1.5-.169,1.848-1.251,2.227-1.241,3.666a.633.633,0,0,0,.674.534c.279-.064.353-.209.511-.068.313.28-.819,1.605-.82,1.891l-.013,2.981h-1.422l.013-2.981c0-.186-1.122-1.56-.875-1.9.113-.155.292.067.54.075.3.009.721-.17.72-.526,0-1.439-1.135-1.616-1.287-3.672-.044-.6-1.272-1.378-1.781-1.5-.254-.061-.759-.042-.981-.123-.332-.12-.895-.641-1.231-.479a.53.53,0,0,0-.117.724c.113.126.266.132.519.344.066.055.07.1.031.093-.076-.01-.222-.063-.226,0-.006.11.1.234.046.279s-.188-.164-.276-.176c-.059-.008-.066.05-.055.123.015.095-.019.128-.084,0-.125-.241-.082-.4-.156-.556a.824.824,0,0,1,.248-1.044c.393-.211.971.234,1.394.324.237.051.767-.011,1.029.014a14.058,14.058,0,0,1,2.259.747A4.058,4.058,0,0,0,224.6,187.785Z" transform="translate(-218.61 -186.356)" fill="#ffabb5" fill-rule="evenodd"/>
        <path id="Path_10397" data-name="Path 10397" d="M239.663,201.753h-.451v-3.181c0-.206-.562-1.259-.363-1.5s.65-.084.673-.522c.08-1.521-.869-1.873-.949-3.006-.07-.985-.682-1.625-.346-1.924.217-.193.812.162,1.439.2.627-.04,1.158-.406,1.406-.2s-.2.932-.336,1.9c-.127.938-.886,1.22-.856,3.021.009.516.377.3.6.53s-.363,1.265-.363,1.5v3.181Z" transform="translate(-233.673 -190.345)" fill="#f05466" fill-rule="evenodd"/>
        <path id="Path_10398" data-name="Path 10398" d="M238.328,191.687a.29.29,0,0,1,.055-.064c.218-.193.812.162,1.439.2.627-.04,1.158-.406,1.406-.2s-.2.932-.336,1.9c-.127.938-.886,1.22-.856,3.021.009.516.377.3.6.53s-.363,1.265-.363,1.5v3.181l-.169-.01v-3.06c0-.234.679-1.34.464-1.565s-.749.046-.757-.47c-.03-1.8.694-2.067.821-3.005.131-.968.66-1.708.4-1.92s-.846.181-1.474.221C239.077,191.915,238.789,191.5,238.328,191.687Z" transform="translate(-233.828 -190.345)" fill="#d94657" fill-rule="evenodd"/>
        <path id="Path_10399" data-name="Path 10399" d="M242.41,216.246a.032.032,0,0,1,0-.063l.1,0a7.589,7.589,0,0,0,1.01,0,.032.032,0,1,1,.009.063,7.61,7.61,0,0,1-1.022,0Z" transform="translate(-236.954 -209.347)" fill="#d94657" fill-rule="evenodd"/>
        <path id="Path_10400" data-name="Path 10400" d="M242.323,217.313a.032.032,0,1,1,0-.063l.1,0a8.142,8.142,0,0,0,1.049,0,.032.032,0,0,1,.009.063,8.247,8.247,0,0,1-1.061,0Z" transform="translate(-236.887 -210.17)" fill="#d94657" fill-rule="evenodd"/>
        <path id="Path_10401" data-name="Path 10401" d="M242.678,218.381a.032.032,0,1,1,0-.063l.087,0a6.045,6.045,0,0,0,.9,0,.032.032,0,1,1,.011.063,6.066,6.066,0,0,1-.914,0Z" transform="translate(-237.161 -210.994)" fill="#d94657" fill-rule="evenodd"/>
        <path id="Path_10402" data-name="Path 10402" d="M242.976,219.448a.032.032,0,1,1,0-.063l.076,0a4.494,4.494,0,0,0,.775,0,.032.032,0,0,1,.012.063,4.519,4.519,0,0,1-.791,0Z" transform="translate(-237.391 -211.818)" fill="#d94657" fill-rule="evenodd"/>
        <path id="Path_10403" data-name="Path 10403" d="M243.292,220.516a.032.032,0,1,1,0-.063l.065,0a3.1,3.1,0,0,0,.64,0,.032.032,0,0,1,.015.062,3.134,3.134,0,0,1-.658,0Z" transform="translate(-237.636 -212.642)" fill="#d94657" fill-rule="evenodd"/>
        <path id="Path_10404" data-name="Path 10404" d="M243.618,221.583a.032.032,0,1,1,0-.063l.05,0a1.95,1.95,0,0,0,.5,0,.032.032,0,1,1,.018.061,1.962,1.962,0,0,1-.527.005Z" transform="translate(-237.888 -213.465)" fill="#d94657" fill-rule="evenodd"/>
        <path id="Path_10405" data-name="Path 10405" d="M243.609,222.65a.032.032,0,1,1,0-.063l.05,0a1.973,1.973,0,0,0,.508,0,.032.032,0,1,1,.018.061,2,2,0,0,1-.531.005Z" transform="translate(-237.881 -214.289)" fill="#d94657" fill-rule="evenodd"/>
        <path id="Path_10406" data-name="Path 10406" d="M243.638,223.718a.032.032,0,0,1,0-.064l.049,0a1.888,1.888,0,0,0,.495,0,.032.032,0,0,1,.019.061,1.913,1.913,0,0,1-.519.005Z" transform="translate(-237.903 -215.113)" fill="#d94657" fill-rule="evenodd"/>
        <path id="Path_10407" data-name="Path 10407" d="M243.591,224.785a.032.032,0,1,1,0-.063l.052,0a2.042,2.042,0,0,0,.514,0,.032.032,0,0,1,.018.061,2.052,2.052,0,0,1-.536.005Z" transform="translate(-237.867 -215.937)" fill="#d94657" fill-rule="evenodd"/>
        <path id="Path_10408" data-name="Path 10408" d="M243.545,225.852a.032.032,0,1,1,0-.063l.053,0a2.19,2.19,0,0,0,.535,0,.032.032,0,0,1,.017.061,2.2,2.2,0,0,1-.557,0Z" transform="translate(-237.831 -216.761)" fill="#d94657" fill-rule="evenodd"/>
        <path id="Path_10409" data-name="Path 10409" d="M243.554,226.919a.032.032,0,0,1,0-.064l.053,0a2.158,2.158,0,0,0,.531,0,.032.032,0,0,1,.018.061,2.184,2.184,0,0,1-.553,0Z" transform="translate(-237.838 -217.584)" fill="#d94657" fill-rule="evenodd"/>
        <path id="Path_10410" data-name="Path 10410" d="M243.619,227.987a.032.032,0,0,1-.03-.034.032.032,0,0,1,.034-.03l.05,0a1.949,1.949,0,0,0,.5,0,.032.032,0,1,1,.018.061,1.97,1.97,0,0,1-.526.005Z" transform="translate(-237.889 -218.408)" fill="#d94657" fill-rule="evenodd"/>
        <path id="Path_10411" data-name="Path 10411" d="M243.536,229.055a.032.032,0,0,1,0-.063l.055,0a2.2,2.2,0,0,0,.537,0,.032.032,0,0,1,.039.022.032.032,0,0,1-.022.039,2.215,2.215,0,0,1-.558,0Z" transform="translate(-237.825 -219.232)" fill="#d94657" fill-rule="evenodd"/>
        <path id="Path_10412" data-name="Path 10412" d="M243.517,230.122a.032.032,0,1,1,0-.063l.054,0a2.275,2.275,0,0,0,.547,0,.032.032,0,0,1,.017.061,2.3,2.3,0,0,1-.568,0Z" transform="translate(-237.81 -220.056)" fill="#d94657" fill-rule="evenodd"/>
        <path id="Path_10413" data-name="Path 10413" d="M243.556,231.189a.032.032,0,0,1-.03-.034.032.032,0,0,1,.034-.03l.052,0a2.151,2.151,0,0,0,.53,0,.032.032,0,1,1,.017.061,2.167,2.167,0,0,1-.552.005Z" transform="translate(-237.84 -220.88)" fill="#d94657" fill-rule="evenodd"/>
        <path id="Path_10414" data-name="Path 10414" d="M243.623,232.257a.032.032,0,1,1,0-.063l.05,0a1.944,1.944,0,0,0,.5,0,.032.032,0,1,1,.018.061,1.949,1.949,0,0,1-.525,0Z" transform="translate(-237.892 -221.704)" fill="#d94657" fill-rule="evenodd"/>
        <path id="Path_10415" data-name="Path 10415" d="M243.585,233.324a.032.032,0,1,1,0-.063l.052,0a2.051,2.051,0,0,0,.518,0,.032.032,0,0,1,.018.061,2.065,2.065,0,0,1-.54,0Z" transform="translate(-237.862 -222.527)" fill="#d94657" fill-rule="evenodd"/>
        <path id="Path_10416" data-name="Path 10416" d="M243.623,234.391a.032.032,0,0,1-.03-.034.032.032,0,0,1,.034-.03l.05,0a1.933,1.933,0,0,0,.5,0,.032.032,0,1,1,.018.061,1.958,1.958,0,0,1-.525.005Z" transform="translate(-237.892 -223.351)" fill="#d94657" fill-rule="evenodd"/>
        <path id="Path_10417" data-name="Path 10417" d="M243.546,235.459a.032.032,0,1,1,0-.063l.053,0a2.187,2.187,0,0,0,.534,0,.032.032,0,0,1,.017.061,2.208,2.208,0,0,1-.556,0Z" transform="translate(-237.832 -224.175)" fill="#d94657" fill-rule="evenodd"/>
        <path id="Path_10418" data-name="Path 10418" d="M242.41,215.976a.032.032,0,0,1,0-.064l.1,0a7.626,7.626,0,0,0,1.013,0,.032.032,0,0,1,.009.063,7.657,7.657,0,0,1-1.025,0Z" transform="translate(-236.954 -209.138)" fill="#ff7f8e" fill-rule="evenodd"/>
        <path id="Path_10419" data-name="Path 10419" d="M242.323,217.044a.032.032,0,1,1,0-.063l.1,0a8.192,8.192,0,0,0,1.049,0,.032.032,0,0,1,.009.063,8.2,8.2,0,0,1-1.061,0Z" transform="translate(-236.887 -209.963)" fill="#ff7f8e" fill-rule="evenodd"/>
        <path id="Path_10420" data-name="Path 10420" d="M242.678,218.112a.032.032,0,0,1,0-.064l.087,0a6.067,6.067,0,0,0,.9,0,.032.032,0,1,1,.011.063,6.07,6.07,0,0,1-.914,0Z" transform="translate(-237.161 -210.786)" fill="#ff7f8e" fill-rule="evenodd"/>
        <path id="Path_10421" data-name="Path 10421" d="M242.976,219.179a.032.032,0,1,1,0-.063l.078,0a4.468,4.468,0,0,0,.773,0,.032.032,0,1,1,.012.063,4.513,4.513,0,0,1-.788,0Z" transform="translate(-237.391 -211.61)" fill="#ff7f8e" fill-rule="evenodd"/>
        <path id="Path_10422" data-name="Path 10422" d="M243.292,220.246a.032.032,0,1,1,0-.063l.063,0a3.132,3.132,0,0,0,.642,0,.032.032,0,0,1,.015.062,3.12,3.12,0,0,1-.66,0Z" transform="translate(-237.636 -212.434)" fill="#ff7f8e" fill-rule="evenodd"/>
        <path id="Path_10423" data-name="Path 10423" d="M243.618,221.313a.032.032,0,0,1,0-.064l.05,0a1.959,1.959,0,0,0,.5,0,.032.032,0,1,1,.018.061,1.962,1.962,0,0,1-.527.005Z" transform="translate(-237.888 -213.257)" fill="#ff7f8e" fill-rule="evenodd"/>
        <path id="Path_10424" data-name="Path 10424" d="M243.609,222.381a.032.032,0,0,1,0-.063l.05,0a1.982,1.982,0,0,0,.507,0,.032.032,0,0,1,.04.021.032.032,0,0,1-.021.04,2,2,0,0,1-.53.005Z" transform="translate(-237.881 -214.081)" fill="#ff7f8e" fill-rule="evenodd"/>
        <path id="Path_10425" data-name="Path 10425" d="M243.638,223.448a.032.032,0,0,1,0-.064l.051,0a1.886,1.886,0,0,0,.494,0,.032.032,0,0,1,.019.061,1.9,1.9,0,0,1-.517.005Z" transform="translate(-237.903 -214.905)" fill="#ff7f8e" fill-rule="evenodd"/>
        <path id="Path_10426" data-name="Path 10426" d="M243.591,224.515a.032.032,0,1,1,0-.064l.051,0a2.041,2.041,0,0,0,.515,0,.032.032,0,0,1,.018.061,2.055,2.055,0,0,1-.538.005Z" transform="translate(-237.867 -215.729)" fill="#ff7f8e" fill-rule="evenodd"/>
        <path id="Path_10427" data-name="Path 10427" d="M243.545,225.583a.032.032,0,1,1,0-.063l.053,0h0a2.2,2.2,0,0,0,.534,0,.032.032,0,0,1,.039.022.031.031,0,0,1-.022.039,2.208,2.208,0,0,1-.556.005h0Z" transform="translate(-237.831 -216.553)" fill="#ff7f8e" fill-rule="evenodd"/>
        <path id="Path_10428" data-name="Path 10428" d="M243.554,226.65a.032.032,0,0,1,0-.064l.052,0h0a2.168,2.168,0,0,0,.531,0,.032.032,0,1,1,.018.061,2.186,2.186,0,0,1-.553,0Z" transform="translate(-237.838 -217.376)" fill="#ff7f8e" fill-rule="evenodd"/>
        <path id="Path_10429" data-name="Path 10429" d="M243.619,227.718a.032.032,0,0,1,0-.063l.051,0a1.95,1.95,0,0,0,.5,0,.032.032,0,1,1,.018.061,1.968,1.968,0,0,1-.525.005Z" transform="translate(-237.889 -218.2)" fill="#ff7f8e" fill-rule="evenodd"/>
        <path id="Path_10430" data-name="Path 10430" d="M243.536,228.785a.032.032,0,0,1,0-.063l.053,0a2.22,2.22,0,0,0,.538,0,.032.032,0,1,1,.017.061,2.229,2.229,0,0,1-.56,0Z" transform="translate(-237.825 -219.024)" fill="#ff7f8e" fill-rule="evenodd"/>
        <path id="Path_10431" data-name="Path 10431" d="M243.517,229.853a.032.032,0,0,1,0-.064l.054,0a2.287,2.287,0,0,0,.547,0,.032.032,0,0,1,.017.061,2.3,2.3,0,0,1-.568,0Z" transform="translate(-237.81 -219.848)" fill="#ff7f8e" fill-rule="evenodd"/>
        <path id="Path_10432" data-name="Path 10432" d="M243.556,230.92a.032.032,0,1,1,0-.063l.052,0a2.153,2.153,0,0,0,.53,0,.032.032,0,1,1,.017.061,2.165,2.165,0,0,1-.552,0Z" transform="translate(-237.84 -220.672)" fill="#ff7f8e" fill-rule="evenodd"/>
        <path id="Path_10433" data-name="Path 10433" d="M243.623,231.987a.032.032,0,0,1,0-.064l.051,0a1.933,1.933,0,0,0,.5,0,.032.032,0,1,1,.018.061,1.936,1.936,0,0,1-.523.005Z" transform="translate(-237.892 -221.496)" fill="#ff7f8e" fill-rule="evenodd"/>
        <path id="Path_10434" data-name="Path 10434" d="M243.584,233.054a.032.032,0,0,1,0-.064l.051,0a2.061,2.061,0,0,0,.518,0,.032.032,0,0,1,.018.061,2.077,2.077,0,0,1-.54.005Z" transform="translate(-237.862 -222.319)" fill="#ff7f8e" fill-rule="evenodd"/>
        <path id="Path_10435" data-name="Path 10435" d="M243.623,234.122a.032.032,0,1,1,0-.063l.05,0a1.935,1.935,0,0,0,.5,0,.032.032,0,1,1,.018.061,1.938,1.938,0,0,1-.525.005Z" transform="translate(-237.892 -223.143)" fill="#ff7f8e" fill-rule="evenodd"/>
        <path id="Path_10436" data-name="Path 10436" d="M243.546,235.189a.032.032,0,1,1,0-.064l.053,0a2.186,2.186,0,0,0,.534,0,.032.032,0,0,1,.017.061,2.21,2.21,0,0,1-.556,0Z" transform="translate(-237.832 -223.967)" fill="#ff7f8e" fill-rule="evenodd"/>
        <path id="Path_10437" data-name="Path 10437" d="M264.107,192.678c0,.116-.24.144-.523.3s-.356.422-.48.355.015-.432.333-.611S264.105,192.562,264.107,192.678Z" transform="translate(-252.915 -191.136)" fill="#fff6e4" fill-rule="evenodd"/>
        <path id="Path_10438" data-name="Path 10438" d="M222.494,192.789c0,.116.24.144.523.3s.356.422.48.355-.015-.432-.332-.611S222.5,192.673,222.494,192.789Z" transform="translate(-221.608 -191.221)" fill="#fff6e4" fill-rule="evenodd"/>
      </g>
      <path id="Path_10439" data-name="Path 10439" d="M211.449,198.371l-2.716,1.869,12.323-1.46" transform="translate(-206.66 -193.744)" fill="none" stroke="#fff" stroke-linecap="round" stroke-linejoin="round" stroke-width="0.567" fill-rule="evenodd"/>
      <rect id="Rectangle_3767" data-name="Rectangle 3767" width="1.577" height="0.584" transform="translate(0 6.204)" fill="#fff"/>
      <rect id="Rectangle_3768" data-name="Rectangle 3768" width="1.577" height="0.584" transform="translate(5.392 13.745)" fill="#fff"/>
      <line id="Line_427" data-name="Line 427" x1="2.519" y2="0.436" transform="translate(7.394 13.601)" fill="none" stroke="#fff" stroke-linecap="round" stroke-linejoin="round" stroke-width="0.567"/>
      <rect id="Rectangle_3769" data-name="Rectangle 3769" width="1.577" height="0.584" transform="translate(13.234 12.142)" fill="#fff"/>
      <line id="Line_428" data-name="Line 428" x2="2.519" y2="0.436" transform="translate(10.29 11.997)" fill="none" stroke="#fff" stroke-linecap="round" stroke-linejoin="round" stroke-width="0.567"/>
      <rect id="Rectangle_3770" data-name="Rectangle 3770" width="1.577" height="0.584" transform="translate(5.392 7.248)" fill="#fff"/>
      <line id="Line_429" data-name="Line 429" x1="2.912" y2="1.397" transform="translate(7.394 6.144)" fill="none" stroke="#fff" stroke-linecap="round" stroke-linejoin="round" stroke-width="0.567"/>
      <rect id="Rectangle_3771" data-name="Rectangle 3771" width="1.577" height="0.584" transform="translate(9.804 0)" fill="#fff"/>
      <line id="Line_430" data-name="Line 430" y1="0.876" x2="3.507" transform="translate(7.085 0.765)" fill="none" stroke="#fff" stroke-linecap="round" stroke-linejoin="round" stroke-width="0.567"/>
      <line id="Line_431" data-name="Line 431" x1="3.507" y1="0.876" transform="translate(10.592 0.765)" fill="none" stroke="#fff" stroke-linecap="round" stroke-linejoin="round" stroke-width="0.567"/>
    </g>
    <g id="Group_10607" data-name="Group 10607" transform="translate(48.742 0)">
      <g id="Group_10606" data-name="Group 10606" transform="translate(0 0)">
        <path id="Path_10440" data-name="Path 10440" d="M305.492,341.045l-2.476,20.04h2.33l2.476-20.04Z" transform="translate(-294.151 -291.338)" fill="#b6d8fa" fill-rule="evenodd"/>
        <path id="Path_10441" data-name="Path 10441" d="M322.45,341.045l-2.476,20.04H322.3l2.476-20.04Z" transform="translate(-307.239 -291.338)" fill="#082e52" fill-rule="evenodd"/>
        <path id="Path_10442" data-name="Path 10442" d="M377.123,239.348h0a5.1,5.1,0,0,1,5.133,6.242l-2.992,16.842H366.779l2.992-16.842A7.809,7.809,0,0,1,377.123,239.348Z" transform="translate(-343.362 -214.296)" fill="#5384b5" fill-rule="evenodd"/>
        <path id="Path_10443" data-name="Path 10443" d="M376.885,248.487h0a4.227,4.227,0,0,1,4.255,5.174l-2.48,13.96H368.311l2.48-13.96A6.472,6.472,0,0,1,376.885,248.487Z" transform="translate(-344.544 -221.347)" fill="#6a9ccf" fill-rule="evenodd"/>
        <path id="Path_10444" data-name="Path 10444" d="M357.424,192.243c5.691,8.678,1.425,16.793,5.052,25.458-1.9,1.869-8.277,2.69-11.813,2.13.795-3.129-1.114-7.636.932-15.383C352.908,199.478,354.852,196.223,357.424,192.243Z" transform="translate(-330.884 -178.555)" fill="#fff" fill-rule="evenodd"/>
        <path id="Path_10445" data-name="Path 10445" d="M336.209,216.135c-3.384-3.908-7.527,3.391-11.361,6.159-2.528,1.825-.894,4.082,2.232,2.95S339.1,219.475,336.209,216.135Z" transform="translate(-310.044 -196.136)" fill="#f0feff" fill-rule="evenodd"/>
        <path id="Path_10446" data-name="Path 10446" d="M337.159,146.459c1.691-1.889,5.209-3.169,8.046-1.281,3.382,2.25,1.876,5.185,2.345,6.269,2.384,5.5-.568,13.747-6.753,13.92-2.574-4.986,1.6-5.51-.967-11.163C338.99,152.353,337.348,150.4,337.159,146.459Z" transform="translate(-320.502 -142.454)" fill="#ffebc7" fill-rule="evenodd"/>
        <path id="Path_10447" data-name="Path 10447" d="M362.028,170.617l-2.481,3.786c1.313.844,1.844.669,1.852,2.881,1.217-1.256,2.763-1.019,3.98-2.275Z" transform="translate(-337.781 -162.804)" fill="#fbc9be" fill-rule="evenodd"/>
        <path id="Path_10448" data-name="Path 10448" d="M315.549,298.7c-6.172,1.28-6.938.931-14.278,1.548-4.284.36-5.874-4.586-.87-6.4,6.134-2.228,9.152-3.559,16.694-4.644C319.389,293.569,318.566,298.078,315.549,298.7Z" transform="translate(-289.734 -252.505)" fill="#173757" fill-rule="evenodd"/>
        <g id="Group_10600" data-name="Group 10600" transform="translate(15.4 61.823)">
          <path id="Path_10449" data-name="Path 10449" d="M340.081,400.5l-8.04,3.793-.228-.482a1.934,1.934,0,0,1,.867-2.414l5.94-4Z" transform="translate(-331.652 -396.655)" fill="#eb495c" fill-rule="evenodd"/>
          <path id="Path_10450" data-name="Path 10450" d="M353.544,395.325l-.515-1.192-2.305,1.087.527,1.036C351.905,397.643,354.152,396.73,353.544,395.325Z" transform="translate(-346.371 -394.133)" fill="#fbc9be" fill-rule="evenodd"/>
          <rect id="Rectangle_3772" data-name="Rectangle 3772" width="8.89" height="0.533" transform="translate(0.161 7.155) rotate(-25.254)" fill="#eb495c"/>
        </g>
        <path id="Path_10451" data-name="Path 10451" d="M304.795,319.624c3.02,2.892,4.646,7.82,8.156,13.875a7.2,7.2,0,0,1-4.535,2.315c-2.565-3.623-7.163-9.416-9.041-11.633C294.437,318.351,296.416,311.6,304.795,319.624Z" transform="translate(-289.282 -271.965)" fill="#173757" fill-rule="evenodd"/>
        <path id="Path_10452" data-name="Path 10452" d="M393.884,340.5l2.476,20.04h-2.33l-2.476-20.04Z" transform="translate(-362.484 -290.917)" fill="#b6d8fa" fill-rule="evenodd"/>
        <path id="Path_10453" data-name="Path 10453" d="M323.213,295.478c-6.158,1.35-10.394,1.6-17.727,2.3-4.28.408-5.067-4.887-.083-6.76,6.109-2.3,11.53-4.742,19.06-5.911C326.8,289.444,326.222,294.818,323.213,295.478Z" transform="translate(-293.338 -249.339)" fill="#1f4469" fill-rule="evenodd"/>
        <g id="Group_10601" data-name="Group 10601" transform="translate(6.788 67.213)">
          <path id="Path_10454" data-name="Path 10454" d="M302.805,424.715h-8.89v-.533a1.934,1.934,0,0,1,1.814-1.814l7.076-1.079Z" transform="translate(-293.915 -420.482)" fill="#eb495c" fill-rule="evenodd"/>
          <path id="Path_10455" data-name="Path 10455" d="M324.378,419.051l.042-1.3h-2.548l.035,1.162C321.907,420.449,324.328,420.582,324.378,419.051Z" transform="translate(-315.492 -417.754)" fill="#fbc9be" fill-rule="evenodd"/>
          <rect id="Rectangle_3773" data-name="Rectangle 3773" width="8.89" height="0.533" transform="translate(0 3.7)" fill="#eb495c"/>
        </g>
        <path id="Path_10456" data-name="Path 10456" d="M305.223,319.275a91.536,91.536,0,0,1,1.174,18.046,5.228,5.228,0,0,1-4.971.314c-.331-3.9-2.846-15.254-3.337-17.673C296.795,313.6,303.66,309.416,305.223,319.275Z" transform="translate(-290.224 -270.004)" fill="#1f4469" fill-rule="evenodd"/>
        <rect id="Rectangle_3774" data-name="Rectangle 3774" width="21.681" height="2.352" transform="translate(14.221 46.238)" fill="#5384b5"/>
        <g id="Group_10602" data-name="Group 10602" transform="translate(0 17.454)">
          <path id="Path_10457" data-name="Path 10457" d="M264.179,214.135c-.187.459,2.5,1.569,2.805.818C267.25,214.307,264.324,213.781,264.179,214.135Z" transform="translate(-264.17 -212.959)" fill="#e6afa3" fill-rule="evenodd"/>
          <path id="Path_10458" data-name="Path 10458" d="M264.979,217.169c-.069.487,2.348.985,2.461.187C267.539,216.669,265.032,216.793,264.979,217.169Z" transform="translate(-264.793 -215.153)" fill="#e6afa3" fill-rule="evenodd"/>
          <path id="Path_10459" data-name="Path 10459" d="M269.959,220.172c1.307.956,1.743-1.076.064-2.217-.464-.315-.612-.022-.687.5C271.017,218.585,270.644,220,269.959,220.172Z" transform="translate(-268.157 -215.895)" fill="#e6afa3" fill-rule="evenodd"/>
          <path id="Path_10460" data-name="Path 10460" d="M266.532,213.6c-.688-.26-1.383-.57-1.384-.2s2.469,1.87,3.332,1.741c1.62-.241.6-2.43-.5-3.888-.769-1.016-2.32-2.264-2.381-1.776-.077.615,1.037,1.566,1.535,2.39C268,213.3,267.658,213.93,266.532,213.6Z" transform="translate(-264.925 -209.369)" fill="#fbc9be" fill-rule="evenodd"/>
        </g>
        <path id="Path_10461" data-name="Path 10461" d="M291.121,232.523c-3.3-.261-10.8-3.961-13.105-5.1a10.938,10.938,0,0,1,1.4-3.369c2.8.762,8.509,3.816,11.227,4.86C295.543,230.795,294.033,232.754,291.121,232.523Z" transform="translate(-274.855 -203.044)" fill="#f0feff" fill-rule="evenodd"/>
        <path id="Path_10462" data-name="Path 10462" d="M357.837,189.7c5.691,8.678,2.124,16.345,4.442,23.8-2.372,2.332-8.589,1.871-11.7.487.758-11.876-2.219-10.971.264-15.561a80.594,80.594,0,0,0,3.626-7.234A4.362,4.362,0,0,0,357.837,189.7Z" transform="translate(-330.288 -176.683)" fill="#f56c7c" fill-rule="evenodd"/>
        <path id="Path_10463" data-name="Path 10463" d="M366.943,191.46c-.641,2.586-6.767,3.811-7.077,3.818a39.172,39.172,0,0,0,2.155-4.812,6.5,6.5,0,0,0,3.287-1.593C365.713,189,366.675,190.928,366.943,191.46Z" transform="translate(-338.027 -176.314)" fill="#fbc9be" fill-rule="evenodd"/>
        <path id="Path_10464" data-name="Path 10464" d="M364.47,200.21c4.908,8.171.733,15.492,4.36,24.156-1.9,1.869-8.42,4.024-11.956,3.465.129-3.553.184-8.049-.2-15.152C356.439,208.471,361.388,201.74,364.47,200.21Z" transform="translate(-335.553 -184.571)" fill="#fff" fill-rule="evenodd"/>
        <path id="Path_10465" data-name="Path 10465" d="M334.911,233.9a36.71,36.71,0,0,1,5.1-2.23c2.876-3.786,5.228-9.068,7.84-7.534,3.161,1.856-3.385,8.217-5.245,9.449C340.1,235.243,338.094,233.745,334.911,233.9Z" transform="translate(-318.767 -202.869)" fill="#f0feff" fill-rule="evenodd"/>
        <path id="Path_10466" data-name="Path 10466" d="M343.93,141.762c-.093,1.58-.643,4.889-.255,7.493.752,1.07,1.026,2.734,1.343,3.057.607.618,2.485-.5,3.214-1.31,1.079-1.2.1-3.369.418-5.281.482-2.917,3.677-3.735,1.457-4.386C346.3,139.353,344.014,140.336,343.93,141.762Z" transform="translate(-325.425 -139.343)" fill="#fbc9be" fill-rule="evenodd"/>
        <path id="Path_10467" data-name="Path 10467" d="M341.939,163.72c-.265,2.321-1.692,3.4-.137,3.67C343.55,167.692,342.6,162.527,341.939,163.72Z" transform="translate(-323.533 -157.343)" fill="#fbc9be" fill-rule="evenodd"/>
        <path id="Path_10468" data-name="Path 10468" d="M345.421,168.086a.29.29,0,1,0,.319.247A.286.286,0,0,0,345.421,168.086Z" transform="translate(-326.692 -160.848)" fill="#192f45" fill-rule="evenodd"/>
        <path id="Path_10469" data-name="Path 10469" d="M280.216,265.272c1.259.983-.031,1.955-2.851,1.955H274.7C273.681,267.246,270.881,266.913,280.216,265.272Z" transform="translate(-271.374 -234.53)" fill="#fbc9be" fill-rule="evenodd"/>
        <path id="Path_10470" data-name="Path 10470" d="M299,228.719a5.544,5.544,0,0,1-.426-3.622,93.522,93.522,0,0,1,12.11-2.43c2.876-3.785,5.161-11.015,9.181-8.149,3.6,2.566-3.956,9.166-6.728,11C310.94,226.976,301.864,228.575,299,228.719Z" transform="translate(-290.62 -195.19)" fill="#fff" fill-rule="evenodd"/>
        <path id="Path_10471" data-name="Path 10471" d="M335.192,140.345c-.527-1,.345-1.946,1.567-2.069,1.367-1.6,3.486-2.414,6.553-1.531,5.328,1.533,5.088,8.585,3.706,12.785-.424-1.254-5.126,1-4.868-5.626C341.552,143.3,336.152,142.161,335.192,140.345Z" transform="translate(-318.863 -136.382)" fill="#ffebc7" fill-rule="evenodd"/>
        <path id="Path_10472" data-name="Path 10472" d="M345.076,160.075c-.156.1-.322-.172-.166-.275a2.475,2.475,0,0,1,1.488-.285c.188,0,.186.194,0,.19A2.281,2.281,0,0,0,345.076,160.075Z" transform="translate(-326.436 -154.232)" fill="#bd9f7b" fill-rule="evenodd"/>
        <line id="Line_432" data-name="Line 432" y1="1.505" x2="6.006" transform="translate(18.589 5.842)" fill="none" stroke="#fa7382" stroke-miterlimit="22.926" stroke-width="0.72"/>
        <path id="Path_10473" data-name="Path 10473" d="M361.4,161.5c-.424-.041-.832.584-.909,1.395s.2,1.5.628,1.542.831-.584.909-1.395S361.82,161.545,361.4,161.5Z" transform="translate(-338.496 -155.77)" fill="#fbc9be" fill-rule="evenodd"/>
        <path id="Path_10474" data-name="Path 10474" d="M334.972,150.261c-.306,1.381,3.109,3.991,5.282,3.845a5.986,5.986,0,0,1-3.522-3.264C336.586,150.178,335.412,149.574,334.972,150.261Z" transform="translate(-318.799 -146.859)" fill="#ffebc7" fill-rule="evenodd"/>
        <g id="Group_10603" data-name="Group 10603" transform="translate(18.787 10.154)">
          <path id="Path_10475" data-name="Path 10475" d="M346.649,182.047a5.683,5.683,0,0,0,1.409-1.17,6.042,6.042,0,0,1-1.565.77C346.548,181.781,346.6,181.914,346.649,182.047Z" transform="translate(-346.492 -180.877)" fill="#f0b7aa" fill-rule="evenodd"/>
          <path id="Path_10476" data-name="Path 10476" d="M347.5,185.678a3.95,3.95,0,0,0,.494-.609c-.176.119-.37.241-.58.364C347.448,185.516,347.476,185.6,347.5,185.678Z" transform="translate(-347.207 -184.112)" fill="#f0b7aa" fill-rule="evenodd"/>
        </g>
        <path id="Path_10477" data-name="Path 10477" d="M343.341,169.538c.523.075.92.407.886.741s-.487.545-1.01.47-.92-.407-.886-.741S342.818,169.462,343.341,169.538Z" transform="translate(-324.492 -161.959)" fill="#fa7382" fill-rule="evenodd" opacity="0.1"/>
        <g id="Group_10604" data-name="Group 10604" transform="translate(22.324 6.147)">
          <path id="Path_10478" data-name="Path 10478" d="M364.107,163.317c.4-.012.579.757.234,1.384" transform="translate(-363.624 -163.316)" fill="none" stroke="#e6afa3" stroke-linecap="round" stroke-linejoin="round" stroke-width="0.72" fill-rule="evenodd"/>
          <path id="Path_10479" data-name="Path 10479" d="M362.784,167.749a.459.459,0,0,0-.785.433" transform="translate(-361.989 -166.62)" fill="none" stroke="#e6afa3" stroke-linecap="round" stroke-linejoin="round" stroke-width="0.72" fill-rule="evenodd"/>
        </g>
        <path id="Path_10480" data-name="Path 10480" d="M363.394,293.451a12.238,12.238,0,0,0,3.712-.937v.451a12.489,12.489,0,0,1-3.712.937Z" transform="translate(-340.75 -255.288)" fill="#dff4f5" fill-rule="evenodd"/>
        <g id="Group_10605" data-name="Group 10605" transform="translate(17.621 6.377)">
          <path id="Path_10481" data-name="Path 10481" d="M341.607,164.333c.24-.068.573.363.744.963s.114,1.142-.126,1.21-.573-.363-.744-.963S341.367,164.4,341.607,164.333Z" transform="translate(-341.382 -164.326)" fill="#fff" fill-rule="evenodd" opacity="0.5"/>
          <path id="Path_10482" data-name="Path 10482" d="M341.607,164.333c.24-.068.573.363.744.963s.114,1.142-.126,1.21-.573-.363-.744-.963S341.367,164.4,341.607,164.333Z" transform="translate(-341.382 -164.326)" fill="none" stroke="#fa7382" stroke-miterlimit="22.926" stroke-width="0.72" fill-rule="evenodd"/>
        </g>
        <path id="Path_10483" data-name="Path 10483" d="M350.146,150.736c-4.358.714-10.767-1.923-9.332-3.357C341.222,148.533,347.029,150.9,350.146,150.736Z" transform="translate(-323.165 -144.869)" fill="#fff6e4" fill-rule="evenodd"/>
        <path id="Path_10484" data-name="Path 10484" d="M339.191,150.957c-3.1-1.358-3.481-4.157-1.584-3.728C336.748,147.32,337.43,149.515,339.191,150.957Z" transform="translate(-319.957 -144.719)" fill="#fff6e4" fill-rule="evenodd"/>
        <path id="Path_10485" data-name="Path 10485" d="M372.954,168.175c-.381-1.7-4.277-1.761-4.116-6.12C369.87,164.894,372.746,165.382,372.954,168.175Z" transform="translate(-344.947 -156.196)" fill="#fff6e4" fill-rule="evenodd"/>
        <path id="Path_10486" data-name="Path 10486" d="M352.594,204.28c.131-2.75,2.5-3.473.5-6.958C353.74,200.221,351.838,201.958,352.594,204.28Z" transform="translate(-332.275 -182.736)" fill="#fff6e4" fill-rule="evenodd"/>
        <path id="Path_10487" data-name="Path 10487" d="M393.884,340.5l.1.8h-2.33l-.1-.8Z" transform="translate(-362.484 -291.851)" fill="#7cb1e6" fill-rule="evenodd"/>
        <path id="Path_10488" data-name="Path 10488" d="M304.556,284.142l.1.8h-2.33l-.1-.8Z" transform="translate(-293.541 -248.926)" fill="#7cb1e6" fill-rule="evenodd"/>
        <path id="Path_10489" data-name="Path 10489" d="M362.665,182.7a4.989,4.989,0,0,0,.641-1.825,11.662,11.662,0,0,1-.1,2.2Z" transform="translate(-340.187 -170.723)" fill="#f0b7aa" fill-rule="evenodd"/>
      </g>
      <path id="Path_10490" data-name="Path 10490" d="M327.641,248.615l-7.232,1.263,6.637-2.395Z" transform="translate(-307.575 -220.977)" fill="#d4e7e8" fill-rule="evenodd"/>
    </g>
  </g>
</svg>
