<svg xmlns="http://www.w3.org/2000/svg" width="87.168" height="84.6" viewBox="0 0 87.168 84.6">
  <g id="Group_10577" data-name="Group 10577" transform="translate(0)">
    <g id="Group_10572" data-name="Group 10572" transform="translate(0 0)">
      <path id="Path_10189" data-name="Path 10189" d="M649.006,101.4c-11.049,11.058-21.427,18.464-35.732,29.011-13.867-15.17-31.245-39.152-42.368-56.356,13.1-11.515,22.028-19.37,37.462-28.244C619.957,61.813,633.716,80.821,649.006,101.4Z" transform="translate(-570.907 -45.81)" fill="#9fafcd"/>
      <g id="Group_10571" data-name="Group 10571" transform="translate(9.803 12.428)">
        <path id="Path_10190" data-name="Path 10190" d="M616.278,97.381c-7.07-9.705-25.968-36.619-27.267-35.536-2.368,1.976,16.187,25.582,25.655,37.526a2.968,2.968,0,0,0,2.031,1.415C617.55,100.8,617.985,99.724,616.278,97.381Z" transform="translate(-573.561 -52.179)" fill="none" stroke="#bfcbe3" stroke-miterlimit="10" stroke-width="0.5"/>
        <g id="Group_10569" data-name="Group 10569" transform="translate(0 0.32)" opacity="0.62">
          <path id="Path_10191" data-name="Path 10191" d="M595.222,54.92a4.316,4.316,0,1,1-4.316,4.316A4.316,4.316,0,0,1,595.222,54.92Z" transform="translate(-572.722 -54.92)" fill="#60759c"/>
          <path id="Path_10192" data-name="Path 10192" d="M582.228,63.307a4.316,4.316,0,1,1-4.316,4.316A4.316,4.316,0,0,1,582.228,63.307Z" transform="translate(-577.912 -51.732)" fill="#60759c"/>
          <path id="Path_10193" data-name="Path 10193" d="M588.4,72.768a4.316,4.316,0,1,1-4.316,4.316A4.316,4.316,0,0,1,588.4,72.768Z" transform="translate(-575.448 -48.136)" fill="#60759c"/>
          <circle id="Ellipse_411" data-name="Ellipse 411" cx="4.316" cy="4.316" r="4.316" transform="translate(18.185 37.469)" fill="#60759c"/>
          <circle id="Ellipse_412" data-name="Ellipse 412" cx="4.316" cy="4.316" r="4.316" transform="translate(28.26 50.47)" fill="#60759c"/>
          <path id="Path_10194" data-name="Path 10194" d="M602.34,64.411a4.315,4.315,0,1,1-4.316,4.314A4.314,4.314,0,0,1,602.34,64.411Z" transform="translate(-569.878 -51.313)" fill="#60759c"/>
          <path id="Path_10195" data-name="Path 10195" d="M608.681,73.439a4.316,4.316,0,1,1-4.316,4.316A4.315,4.315,0,0,1,608.681,73.439Z" transform="translate(-567.346 -47.881)" fill="#60759c"/>
          <circle id="Ellipse_413" data-name="Ellipse 413" cx="4.316" cy="4.316" r="4.316" transform="translate(46.724 37.469)" fill="#60759c"/>
        </g>
        <g id="Group_10570" data-name="Group 10570" transform="translate(1.192)">
          <path id="Path_10196" data-name="Path 10196" d="M596.074,54.691a4.316,4.316,0,1,1-4.316,4.316A4.315,4.315,0,0,1,596.074,54.691Z" transform="translate(-573.574 -54.691)" fill="#bfcbe3"/>
          <path id="Path_10197" data-name="Path 10197" d="M583.08,63.078a4.315,4.315,0,1,1-4.316,4.314A4.315,4.315,0,0,1,583.08,63.078Z" transform="translate(-578.764 -51.503)" fill="#bfcbe3"/>
          <path id="Path_10198" data-name="Path 10198" d="M589.248,72.539a4.316,4.316,0,1,1-4.316,4.316A4.316,4.316,0,0,1,589.248,72.539Z" transform="translate(-576.3 -47.907)" fill="#bfcbe3"/>
          <path id="Path_10199" data-name="Path 10199" d="M596.074,81.84a4.316,4.316,0,1,1-4.316,4.316A4.316,4.316,0,0,1,596.074,81.84Z" transform="translate(-573.574 -44.372)" fill="#bfcbe3"/>
          <path id="Path_10200" data-name="Path 10200" d="M603.274,91.26a4.316,4.316,0,1,1-4.316,4.316A4.316,4.316,0,0,1,603.274,91.26Z" transform="translate(-570.698 -40.791)" fill="#bfcbe3"/>
          <path id="Path_10201" data-name="Path 10201" d="M603.193,64.181a4.316,4.316,0,1,1-4.316,4.316A4.315,4.315,0,0,1,603.193,64.181Z" transform="translate(-570.73 -51.084)" fill="#bfcbe3"/>
          <path id="Path_10202" data-name="Path 10202" d="M609.533,73.209a4.316,4.316,0,1,1-4.316,4.316A4.316,4.316,0,0,1,609.533,73.209Z" transform="translate(-568.197 -47.652)" fill="#bfcbe3"/>
          <path id="Path_10203" data-name="Path 10203" d="M616.468,81.84a4.316,4.316,0,1,1-4.316,4.316A4.316,4.316,0,0,1,616.468,81.84Z" transform="translate(-565.427 -44.372)" fill="#bfcbe3"/>
        </g>
      </g>
    </g>
    <g id="Group_10576" data-name="Group 10576" transform="translate(1.335 8.152)">
      <g id="Group_10573" data-name="Group 10573" transform="translate(0 52.012)">
        <path id="Path_10204" data-name="Path 10204" d="M577.166,88.989a5.305,5.305,0,1,1-5.305,5.305A5.306,5.306,0,0,1,577.166,88.989Z" transform="translate(-571.861 -88.726)" fill="#bf4759"/>
        <path id="Path_10205" data-name="Path 10205" d="M577.438,88.8a5.305,5.305,0,1,1-5.305,5.305A5.305,5.305,0,0,1,577.438,88.8Z" transform="translate(-571.752 -88.801)" fill="#e06074"/>
        <rect id="Rectangle_3752" data-name="Rectangle 3752" width="0.525" height="9.157" transform="translate(10.264 5.043) rotate(90)" fill="#bf4759"/>
      </g>
      <g id="Group_10574" data-name="Group 10574" transform="translate(60.135)">
        <path id="Path_10206" data-name="Path 10206" d="M615.981,54.6a5.3,5.3,0,1,1,1.92,7.253A5.3,5.3,0,0,1,615.981,54.6Z" transform="translate(-615.226 -51.503)" fill="#bf4759"/>
        <path id="Path_10207" data-name="Path 10207" d="M615.955,54.274a5.305,5.305,0,1,1,1.92,7.253A5.3,5.3,0,0,1,615.955,54.274Z" transform="translate(-615.236 -51.635)" fill="#e06074"/>
        <rect id="Rectangle_3753" data-name="Rectangle 3753" width="0.525" height="9.157" transform="matrix(0.865, 0.503, -0.503, 0.865, 7.379, 1.215)" fill="#bf4759"/>
      </g>
      <g id="Group_10575" data-name="Group 10575" transform="translate(75.184 10.801)">
        <path id="Path_10208" data-name="Path 10208" d="M626.836,62.323a5.3,5.3,0,1,1,1.922,7.252A5.307,5.307,0,0,1,626.836,62.323Z" transform="translate(-626.081 -59.221)" fill="#bf4759"/>
        <path id="Path_10209" data-name="Path 10209" d="M626.81,61.992a5.305,5.305,0,1,1,1.921,7.253A5.306,5.306,0,0,1,626.81,61.992Z" transform="translate(-626.091 -59.353)" fill="#e06074"/>
        <rect id="Rectangle_3754" data-name="Rectangle 3754" width="0.525" height="9.157" transform="translate(7.38 1.216) rotate(30.166)" fill="#bf4759"/>
      </g>
    </g>
  </g>
</svg>
