<svg id="icons8-whatsapp" xmlns="http://www.w3.org/2000/svg" width="30.675" height="30.805" viewBox="0 0 30.675 30.805">
  <path id="Path_10647" data-name="Path 10647" d="M4.868,34.276l2.059-7.517A14.512,14.512,0,1,1,19.5,34.024H19.5a14.5,14.5,0,0,1-6.935-1.766Z" transform="translate(-4.103 -4.236)" fill="#fff" fill-rule="evenodd"/>
  <path id="Path_10648" data-name="Path 10648" d="M4.75,34.54a.382.382,0,0,1-.368-.482L6.4,26.693a14.892,14.892,0,1,1,6,5.855L4.847,34.527A.35.35,0,0,1,4.75,34.54Z" transform="translate(-3.986 -4.118)" fill="#fff" fill-rule="evenodd"/>
  <path id="Path_10649" data-name="Path 10649" d="M19.266,4.764a14.512,14.512,0,0,1,0,29.024H19.26a14.5,14.5,0,0,1-6.935-1.766L4.632,34.04l2.059-7.517A14.514,14.514,0,0,1,19.266,4.764m0,29.024h0m0,0h0M19.266,4h0A15.28,15.28,0,0,0,5.87,26.624L3.895,33.839a.764.764,0,0,0,.932.941l7.4-1.941A15.277,15.277,0,1,0,19.266,4Z" transform="translate(-3.868 -4)" fill="#cfd8dc" fill-rule="evenodd"/>
  <path id="Path_10650" data-name="Path 10650" d="M28.826,11.742A12.062,12.062,0,0,0,10.076,26.68l.287.456L9.145,31.585l4.565-1.2.441.261A12.038,12.038,0,0,0,20.29,32.33h0a12.062,12.062,0,0,0,8.531-20.588Z" transform="translate(-4.896 -4.991)" fill="#40c351" fill-rule="evenodd"/>
  <path id="Path_10651" data-name="Path 10651" d="M18.112,15.849c-.271-.6-.557-.616-.816-.627-.212-.009-.453-.008-.695-.008a1.333,1.333,0,0,0-.967.454,4.064,4.064,0,0,0-1.27,3.024,7.051,7.051,0,0,0,1.48,3.75c.181.242,2.508,4.02,6.194,5.473,3.063,1.208,3.686.968,4.351.907A3.66,3.66,0,0,0,28.838,27.1a3.036,3.036,0,0,0,.212-1.724c-.091-.151-.332-.242-.695-.423s-2.145-1.059-2.478-1.179-.574-.181-.816.182-.936,1.179-1.148,1.421-.423.273-.786.091a9.925,9.925,0,0,1-2.916-1.8,10.924,10.924,0,0,1-2.017-2.511c-.212-.362-.023-.559.159-.74.163-.163.362-.423.544-.635a2.48,2.48,0,0,0,.362-.6.667.667,0,0,0-.031-.635C19.14,18.359,18.435,16.566,18.112,15.849Z" transform="translate(-6.342 -6.643)" fill="#fff" fill-rule="evenodd"/>
</svg>
