<svg xmlns="http://www.w3.org/2000/svg" xmlns:xlink="http://www.w3.org/1999/xlink" width="134.838" height="121.33" viewBox="0 0 134.838 121.33">
  <defs>
    <filter id="Path_9271" x="0" y="16.322" width="63.023" height="88.685" filterUnits="userSpaceOnUse">
      <feOffset dy="3" input="SourceAlpha"/>
      <feGaussianBlur stdDeviation="3" result="blur"/>
      <feFlood flood-opacity="0.161"/>
      <feComposite operator="in" in2="blur"/>
      <feComposite in="SourceGraphic"/>
    </filter>
    <filter id="Path_9273" x="71.815" y="16.322" width="63.023" height="88.685" filterUnits="userSpaceOnUse">
      <feOffset dy="3" input="SourceAlpha"/>
      <feGaussianBlur stdDeviation="3" result="blur-2"/>
      <feFlood flood-opacity="0.161"/>
      <feComposite operator="in" in2="blur-2"/>
      <feComposite in="SourceGraphic"/>
    </filter>
    <filter id="Path_9284" x="23.807" y="0" width="87.223" height="121.33" filterUnits="userSpaceOnUse">
      <feOffset dy="3" input="SourceAlpha"/>
      <feGaussianBlur stdDeviation="3" result="blur-3"/>
      <feFlood flood-opacity="0.161"/>
      <feComposite operator="in" in2="blur-3"/>
      <feComposite in="SourceGraphic"/>
    </filter>
  </defs>
  <g id="Group_10398" data-name="Group 10398" transform="translate(9 9.881)">
    <g transform="matrix(1, 0, 0, 1, -9, -9.88)" filter="url(#Path_9271)">
      <path id="Path_9271-2" data-name="Path 9271" d="M6.666,102.322H42.327A4.681,4.681,0,0,1,47.008,107v61.324a4.681,4.681,0,0,1-4.681,4.681H6.666a4.681,4.681,0,0,1-4.681-4.681V107A4.68,4.68,0,0,1,6.666,102.322Z" transform="translate(7.02 -80)" fill="#f2f2f2"/>
    </g>
    <path id="Path_9280" data-name="Path 9280" d="M44.953,157.5a4.141,4.141,0,0,0,.811-.035,2.807,2.807,0,0,0,1.554-.721,3.256,3.256,0,0,0,.982-1.975h-.035a2.182,2.182,0,0,1-1.747.8,2.153,2.153,0,0,1-2.194-2.107c0-.055,0-.111,0-.166a2.546,2.546,0,0,1,2.45-2.636c.029,0,.057,0,.086,0,1.519,0,2.455,1.234,2.455,3.131a4.7,4.7,0,0,1-1.282,3.491,3.717,3.717,0,0,1-2.16.993,4.761,4.761,0,0,1-.926.057Zm.365-4.272a1.427,1.427,0,0,0,1.272,1.568,1.45,1.45,0,0,0,.155.007,1.664,1.664,0,0,0,1.46-.778.655.655,0,0,0,.091-.365c0-1.267-.469-2.238-1.519-2.238C45.925,151.423,45.319,152.177,45.319,153.227Z" transform="translate(-34.586 -127.099)" fill="#8ba0ae"/>
    <path id="Path_9281" data-name="Path 9281" d="M70.335,178.485a.675.675,0,0,1,.628-.719c.02,0,.038,0,.058,0a.722.722,0,1,1-.686.756Z" transform="translate(-54.614 -147.972)" fill="#8ba0ae"/>
    <path id="Path_9282" data-name="Path 9282" d="M80.682,157.5a4.141,4.141,0,0,0,.811-.035,2.807,2.807,0,0,0,1.553-.721,3.256,3.256,0,0,0,.982-1.975h-.035a2.182,2.182,0,0,1-1.747.8,2.153,2.153,0,0,1-2.194-2.107c0-.055,0-.111,0-.166a2.546,2.546,0,0,1,2.45-2.636c.029,0,.057,0,.086,0,1.519,0,2.455,1.234,2.455,3.131a4.687,4.687,0,0,1-1.278,3.483,3.717,3.717,0,0,1-2.16.993,4.759,4.759,0,0,1-.926.057Zm.365-4.272a1.427,1.427,0,0,0,1.272,1.568,1.45,1.45,0,0,0,.155.007,1.664,1.664,0,0,0,1.46-.778.655.655,0,0,0,.091-.365c0-1.267-.469-2.238-1.519-2.238C81.654,151.423,81.048,152.177,81.048,153.227Z" transform="translate(-62.098 -127.099)" fill="#8ba0ae"/>
    <path id="Path_9283" data-name="Path 9283" d="M106.134,157.5a4.141,4.141,0,0,0,.811-.035,2.807,2.807,0,0,0,1.553-.721,3.256,3.256,0,0,0,.982-1.975h-.037a2.182,2.182,0,0,1-1.747.8,2.153,2.153,0,0,1-2.194-2.107,1.659,1.659,0,0,1,0-.166,2.546,2.546,0,0,1,2.45-2.636c.029,0,.057,0,.086,0,1.519,0,2.455,1.234,2.455,3.131a4.687,4.687,0,0,1-1.278,3.483,3.717,3.717,0,0,1-2.16.993,4.759,4.759,0,0,1-.926.057Zm.365-4.272a1.427,1.427,0,0,0,1.272,1.568,1.449,1.449,0,0,0,.155.007,1.664,1.664,0,0,0,1.46-.778.655.655,0,0,0,.091-.365c0-1.267-.469-2.238-1.519-2.238C107.106,151.423,106.5,152.177,106.5,153.227Z" transform="translate(-81.695 -127.099)" fill="#8ba0ae"/>
    <g id="Group_10397" data-name="Group 10397" transform="translate(71.815 12.441)">
      <g transform="matrix(1, 0, 0, 1, -80.82, -22.32)" filter="url(#Path_9273)">
        <path id="Path_9273-2" data-name="Path 9273" d="M318.935,102.322H354.6A4.681,4.681,0,0,1,359.277,107v61.324a4.681,4.681,0,0,1-4.681,4.681H318.935a4.681,4.681,0,0,1-4.681-4.681V107A4.68,4.68,0,0,1,318.935,102.322Z" transform="translate(-233.44 -80)" fill="#f2f2f2"/>
      </g>
      <path id="Path_9275" data-name="Path 9275" d="M375.671,158.172v-.617l.789-.765c1.9-1.8,2.753-2.764,2.766-3.883a1.325,1.325,0,0,0-1.183-1.453,1.406,1.406,0,0,0-.292,0,2.523,2.523,0,0,0-1.576.628l-.319-.708a3.261,3.261,0,0,1,2.1-.754,2.087,2.087,0,0,1,2.264,1.9,2.5,2.5,0,0,1,.007.263c0,1.371-.993,2.477-2.556,3.987l-.593.548v.022h3.335v.834Z" transform="translate(-361.547 -139.508)" fill="#8ba0ae"/>
      <path id="Path_9276" data-name="Path 9276" d="M401.541,157.5a4.141,4.141,0,0,0,.811-.035,2.807,2.807,0,0,0,1.553-.721,3.256,3.256,0,0,0,.982-1.975h-.035a2.182,2.182,0,0,1-1.747.8,2.153,2.153,0,0,1-2.194-2.107,1.657,1.657,0,0,1,0-.166,2.546,2.546,0,0,1,2.45-2.636c.029,0,.057,0,.086,0,1.519,0,2.456,1.234,2.456,3.131a4.687,4.687,0,0,1-1.278,3.483,3.717,3.717,0,0,1-2.16.993,4.759,4.759,0,0,1-.926.057Zm.365-4.272a1.427,1.427,0,0,0,1.272,1.568,1.448,1.448,0,0,0,.155.007,1.664,1.664,0,0,0,1.46-.778.655.655,0,0,0,.091-.365c0-1.267-.469-2.238-1.519-2.238C402.514,151.423,401.906,152.177,401.906,153.227Z" transform="translate(-380.982 -139.54)" fill="#8ba0ae"/>
      <path id="Path_9277" data-name="Path 9277" d="M426.93,178.485a.675.675,0,0,1,.628-.719c.02,0,.038,0,.058,0a.722.722,0,1,1-.686.756Z" transform="translate(-401.015 -160.413)" fill="#8ba0ae"/>
      <path id="Path_9278" data-name="Path 9278" d="M437.263,157.5a4.14,4.14,0,0,0,.811-.035,2.807,2.807,0,0,0,1.553-.721,3.256,3.256,0,0,0,.982-1.975h-.035a2.182,2.182,0,0,1-1.747.8,2.153,2.153,0,0,1-2.194-2.107c0-.055,0-.111,0-.166a2.546,2.546,0,0,1,2.45-2.636c.029,0,.057,0,.086,0,1.519,0,2.455,1.234,2.455,3.131a4.687,4.687,0,0,1-1.278,3.483,3.717,3.717,0,0,1-2.16.993,4.759,4.759,0,0,1-.926.057Zm.365-4.272a1.427,1.427,0,0,0,1.273,1.568,1.449,1.449,0,0,0,.155.007,1.664,1.664,0,0,0,1.46-.778.656.656,0,0,0,.091-.365c0-1.267-.469-2.238-1.519-2.238C438.237,151.423,437.628,152.177,437.628,153.227Z" transform="translate(-408.488 -139.54)" fill="#8ba0ae"/>
      <path id="Path_9279" data-name="Path 9279" d="M462.736,157.5a4.141,4.141,0,0,0,.811-.035,2.807,2.807,0,0,0,1.553-.721,3.255,3.255,0,0,0,.982-1.975h-.035a2.182,2.182,0,0,1-1.747.8,2.153,2.153,0,0,1-2.194-2.107c0-.055,0-.111,0-.166a2.546,2.546,0,0,1,2.45-2.636c.029,0,.057,0,.086,0,1.519,0,2.456,1.234,2.456,3.131a4.687,4.687,0,0,1-1.278,3.491,3.717,3.717,0,0,1-2.16.993,4.761,4.761,0,0,1-.926.057Zm.365-4.272a1.427,1.427,0,0,0,1.272,1.568,1.449,1.449,0,0,0,.155.007,1.664,1.664,0,0,0,1.46-.778.655.655,0,0,0,.091-.365c0-1.267-.469-2.238-1.519-2.238C463.708,151.423,463.1,152.177,463.1,153.227Z" transform="translate(-428.103 -139.54)" fill="#8ba0ae"/>
      <rect id="Rectangle_3590" data-name="Rectangle 3590" width="12.551" height="1.826" transform="translate(15.119 27.621)" fill="#aac1ce"/>
      <rect id="Rectangle_3591" data-name="Rectangle 3591" width="20.082" height="1.826" transform="translate(15.119 34.431)" fill="#aac1ce"/>
      <rect id="Rectangle_3592" data-name="Rectangle 3592" width="20.082" height="1.826" transform="translate(15.119 41.246)" fill="#aac1ce"/>
      <rect id="Rectangle_3593" data-name="Rectangle 3593" width="20.082" height="1.826" transform="translate(15.119 48.068)" fill="#aac1ce"/>
      <rect id="Rectangle_3594" data-name="Rectangle 3594" width="20.082" height="1.826" transform="translate(15.119 54.879)" fill="#aac1ce"/>
    </g>
    <rect id="Rectangle_3595" data-name="Rectangle 3595" width="12.551" height="1.826" transform="translate(16.206 40.062)" fill="#aac1ce"/>
    <rect id="Rectangle_3596" data-name="Rectangle 3596" width="20.082" height="1.826" transform="translate(8.672 46.872)" fill="#aac1ce"/>
    <rect id="Rectangle_3597" data-name="Rectangle 3597" width="20.082" height="1.826" transform="translate(8.672 53.686)" fill="#aac1ce"/>
    <rect id="Rectangle_3598" data-name="Rectangle 3598" width="20.082" height="1.826" transform="translate(8.672 60.509)" fill="#aac1ce"/>
    <rect id="Rectangle_3599" data-name="Rectangle 3599" width="20.082" height="1.826" transform="translate(8.672 67.32)" fill="#aac1ce"/>
    <g transform="matrix(1, 0, 0, 1, -9, -9.88)" filter="url(#Path_9284)">
      <path id="Path_9284-2" data-name="Path 9284" d="M134.707,64.2h54.828a7.2,7.2,0,0,1,7.2,7.2v88.935a7.2,7.2,0,0,1-7.2,7.2H134.707a7.2,7.2,0,0,1-7.2-7.2V71.4A7.2,7.2,0,0,1,134.707,64.2Z" transform="translate(-94.7 -58.2)" fill="#fff"/>
    </g>
    <path id="Path_9286" data-name="Path 9286" d="M187.546,112.955h-.033l-1.787.964-.268-1.059,2.246-1.2h1.187v10.285h-1.344v-8.987Z" transform="translate(-143.263 -97.069)" fill="#e81241"/>
    <path id="Path_9287" data-name="Path 9287" d="M217.253,120.381a5.646,5.646,0,0,0,1.123-.047,3.871,3.871,0,0,0,2.152-1,4.5,4.5,0,0,0,1.36-2.738h-.051a3.023,3.023,0,0,1-2.421,1.106,2.979,2.979,0,0,1-3.041-2.915c0-.078,0-.155,0-.234a3.525,3.525,0,0,1,3.4-3.649c.038,0,.077,0,.115,0,2.1,0,3.4,1.709,3.4,4.334a6.5,6.5,0,0,1-1.773,4.827,5.143,5.143,0,0,1-2.99,1.376,6.358,6.358,0,0,1-1.278.08Zm.506-5.918a1.98,1.98,0,0,0,1.756,2.18c.073.007.148.011.221.011a2.3,2.3,0,0,0,2.025-1.075.929.929,0,0,0,.126-.506c0-1.756-.648-3.1-2.1-3.1C218.6,111.963,217.758,113.008,217.758,114.463Z" transform="translate(-167.069 -96.49)" fill="#e81241"/>
    <path id="Path_9288" data-name="Path 9288" d="M252.45,149.456a.936.936,0,0,1,.874-.995c.026,0,.051,0,.077,0a1,1,0,0,1-.016,2,.933.933,0,0,1-.937-.933C252.448,149.5,252.448,149.478,252.45,149.456Z" transform="translate(-194.847 -125.408)" fill="#e81241"/>
    <path id="Path_9289" data-name="Path 9289" d="M266.805,120.381a5.645,5.645,0,0,0,1.123-.047,3.87,3.87,0,0,0,2.152-1,4.5,4.5,0,0,0,1.36-2.738h-.046a3.023,3.023,0,0,1-2.421,1.106,2.979,2.979,0,0,1-3.041-2.915c0-.078,0-.155,0-.234a3.525,3.525,0,0,1,3.4-3.649c.038,0,.077,0,.115,0,2.1,0,3.4,1.709,3.4,4.334a6.5,6.5,0,0,1-1.773,4.827,5.143,5.143,0,0,1-2.99,1.376,6.358,6.358,0,0,1-1.278.08Zm.506-5.918a1.98,1.98,0,0,0,1.756,2.18c.073.007.148.011.221.011a2.3,2.3,0,0,0,2.024-1.075.929.929,0,0,0,.126-.506c0-1.756-.648-3.1-2.1-3.1-1.186-.006-2.022,1.039-2.024,2.494Z" transform="translate(-205.23 -96.49)" fill="#e81241"/>
    <path id="Path_9290" data-name="Path 9290" d="M302.1,120.394a5.645,5.645,0,0,0,1.123-.047,3.87,3.87,0,0,0,2.152-1,4.5,4.5,0,0,0,1.36-2.738h-.046a3.023,3.023,0,0,1-2.421,1.106,2.976,2.976,0,0,1-3.04-2.914c0-.077,0-.155,0-.232a3.525,3.525,0,0,1,3.4-3.649c.038,0,.077,0,.115,0,2.1,0,3.4,1.709,3.4,4.334a6.5,6.5,0,0,1-1.773,4.827,5.138,5.138,0,0,1-2.99,1.376,6.356,6.356,0,0,1-1.278.08Zm.506-5.919a1.98,1.98,0,0,0,1.756,2.18c.073.007.148.011.221.011a2.3,2.3,0,0,0,2.025-1.075.929.929,0,0,0,.126-.506c0-1.756-.646-3.1-2.1-3.1-1.185-.006-2.022,1.039-2.024,2.494Z" transform="translate(-232.412 -96.502)" fill="#e81241"/>
    <rect id="Rectangle_3601" data-name="Rectangle 3601" width="13.278" height="1.826" transform="translate(51.779 34.346)" fill="#e81241"/>
    <rect id="Rectangle_3602" data-name="Rectangle 3602" width="38.967" height="1.826" transform="translate(38.936 41.161)" fill="#aac1ce"/>
    <rect id="Rectangle_3603" data-name="Rectangle 3603" width="38.967" height="1.826" transform="translate(38.936 47.978)" fill="#aac1ce"/>
    <rect id="Rectangle_3604" data-name="Rectangle 3604" width="38.967" height="1.826" transform="translate(38.936 54.795)" fill="#aac1ce"/>
    <rect id="Rectangle_3605" data-name="Rectangle 3605" width="38.967" height="1.826" transform="translate(38.936 61.61)" fill="#aac1ce"/>
    <g id="Group_10686" data-name="Group 10686" transform="translate(32.128 68.305)">
      <rect id="Rectangle_3600" data-name="Rectangle 3600" width="52.582" height="18.312" rx="9.156" fill="#1b0968"/>
      <text id="book" transform="translate(12.72 13.466)" fill="#fff" font-size="11" font-family="SegoeUI-Semibold, Segoe UI" font-weight="600"><tspan x="0" y="0">Book</tspan></text>
    </g>
  </g>
</svg>
