<svg xmlns="http://www.w3.org/2000/svg" width="27.453" height="23.328" viewBox="0 0 27.453 23.328">
  <g id="logo-white" transform="translate(0)">
    <path id="Path_10696" data-name="Path 10696" d="M22.2,21.378l-.663-2.016-4.767,3.4,5.43-1.383Z" transform="translate(-4.277 -4.939)" fill="#126849"/>
    <g id="Group_11068" data-name="Group 11068" transform="translate(-5624.327 -14820.067)">
      <path id="Path_10703" data-name="Path 10703" d="M10.953,0A10.953,10.953,0,1,1,0,10.953,10.953,10.953,0,0,1,10.953,0Z" transform="translate(5629.163 14820.778)" fill="#f4f9f8"/>
      <path id="Path_10703_-_Outline" data-name="Path 10703 - Outline" d="M4.164-7.5A11.664,11.664,0,1,1-7.5,4.164,11.677,11.677,0,0,1,4.164-7.5Zm0,21.906A10.242,10.242,0,1,0-6.078,4.164,10.253,10.253,0,0,0,4.164,14.406Z" transform="translate(5635.952 14827.567)" fill="#004747"/>
      <g id="Group_11068-2" data-name="Group 11068" transform="translate(5634.202 14825.052)">
        <g id="Group_11064" data-name="Group 11064" transform="translate(0 0)">
          <path id="Union_30" data-name="Union 30" d="M.148,1.3C.462.855,4.885,0,5.914,0s5.451.855,5.765,1.3c.259.261.915,10.839-5.765,12.058C-.767,12.141-.111,1.564.148,1.3Z" transform="translate(0 0)" fill="#004747"/>
          <path id="Subtraction_8" data-name="Subtraction 8" d="M3.77,7.728h0a3.359,3.359,0,0,1-.786-.09A3.9,3.9,0,0,1,.919,6.383,3.818,3.818,0,0,1,.011,4.162a3.942,3.942,0,0,1,.564-2.34A3.85,3.85,0,0,1,1.341.914,3.723,3.723,0,0,1,2.362.284,3.768,3.768,0,0,1,3.808,0,3.951,3.951,0,0,1,5.256.274a2.711,2.711,0,0,1,1,.652A4.642,4.642,0,0,0,5.034.746,2.812,2.812,0,0,0,2.406,2.476a2.861,2.861,0,0,0,.555,3.338h0a2.892,2.892,0,0,0,2.056.93A3.606,3.606,0,0,0,6.7,6.271c-.061.121-.128.24-.2.353a3.438,3.438,0,0,1-1.226.809A4.094,4.094,0,0,1,3.77,7.728Z" transform="translate(2.546 2.759)" fill="#00f3bb"/>
        </g>
      </g>
      <path id="Path_10704" data-name="Path 10704" d="M4.246.124Q2.372,1.2.5,2.288A.791.791,0,0,0,.186,3.542L1.883,6.3c.376.614.769.713,1.364.32q1.843-1.214,3.68-2.438c.069-.046.129-.1.2-.167A16.1,16.1,0,0,1,4.493,0C4.384.055,4.313.085,4.246.124Z" transform="matrix(0.996, 0.087, -0.087, 0.996, 5624.924, 14834.688)" fill="#004747"/>
    </g>
  </g>
</svg>
